<svg width="1728" height="1117" viewBox="0 0 1728 1117" fill="none" xmlns="http://www.w3.org/2000/svg">
<g clip-path="url(#clip0_1_479)">
<rect width="1728" height="1117" fill="#EB565B"/>
<mask id="path-1-outside-1_1_479" maskUnits="userSpaceOnUse" x="-66.8887" y="584" width="1862" height="261" fill="black">
<rect fill="white" x="-66.8887" y="584" width="1862" height="261"/>
<path d="M-59.3761 593.138H-15.6204C-11.0266 593.138 -7.23675 594.975 -4.2508 598.65L119.781 759.892V597.272C119.781 596.124 120.126 595.205 120.815 594.516C121.734 593.597 122.767 593.138 123.916 593.138H159.403C160.551 593.138 161.47 593.597 162.159 594.516C163.078 595.205 163.537 596.124 163.537 597.272V830.177C163.537 832.933 162.159 834.311 159.403 834.311H126.672C122.078 834.311 118.288 832.473 115.302 828.798L-61.7879 597.961C-62.7066 597.042 -62.8215 596.009 -62.1324 594.86C-61.4433 593.712 -60.5246 593.138 -59.3761 593.138ZM213.279 830.866V597.961C213.279 596.813 213.623 595.894 214.313 595.205C215.231 594.286 216.265 593.827 217.413 593.827H250.144C254.738 593.827 258.528 595.664 261.514 599.339L438.948 830.177C439.637 831.325 439.637 832.473 438.948 833.622C438.489 834.541 437.57 835 436.192 835H392.436C387.843 835 384.053 833.162 381.067 829.487L321.462 751.623L261.514 829.487C258.528 833.162 254.738 835 250.144 835H217.413C216.265 835 215.231 834.655 214.313 833.966C213.623 833.048 213.279 832.014 213.279 830.866ZM257.379 668.246V760.581L292.866 714.413L257.379 668.246ZM470.43 593.827H505.917C508.903 593.827 510.396 595.205 510.396 597.961V791.244H606.865C608.243 791.244 609.162 791.818 609.622 792.967C610.311 794.115 610.311 795.149 609.622 796.068L583.782 829.487C580.796 833.162 577.121 835 572.756 835H470.43C469.282 835 468.248 834.655 467.329 833.966C466.64 833.048 466.296 832.014 466.296 830.866V597.961C466.296 596.813 466.64 595.894 467.329 595.205C468.248 594.286 469.282 593.827 470.43 593.827ZM627.233 713.38C627.233 695.694 630.449 679.271 636.88 664.111C643.541 648.722 652.384 635.515 663.409 624.49C674.664 613.235 687.871 604.507 703.03 598.306C718.19 591.874 734.498 588.773 751.954 589.003C769.411 589.233 785.718 592.678 800.878 599.339C816.037 606 829.13 615.073 840.155 626.557C851.409 638.042 860.252 651.479 866.684 666.868C873.115 682.027 876.216 698.22 875.986 715.447C875.756 732.903 872.311 749.211 865.65 764.371C858.989 779.53 849.916 792.737 838.432 803.992C827.177 815.247 813.97 824.09 798.811 830.521C783.651 836.723 767.343 839.823 749.887 839.823C732.66 839.823 716.467 836.608 701.308 830.177C686.378 823.516 673.401 814.558 662.375 803.303C651.35 791.818 642.737 778.382 636.535 762.993C630.334 747.603 627.233 731.066 627.233 713.38ZM671.333 715.102C671.333 726.357 673.515 737.038 677.879 747.144C682.244 757.25 688.101 766.093 695.451 773.673C702.801 781.253 711.299 787.225 720.946 791.589C730.593 795.953 740.929 798.135 751.954 798.135C762.75 797.905 772.971 795.494 782.618 790.9C792.265 786.306 800.648 780.219 807.769 772.639C815.119 764.83 820.861 755.872 824.995 745.766C829.13 735.43 831.082 724.634 830.852 713.38C830.852 702.125 828.67 691.444 824.306 681.338C819.942 671.232 814.085 662.504 806.735 655.154C799.385 647.574 790.772 641.602 780.895 637.238C771.248 632.874 761.027 630.692 750.231 630.692C739.436 630.921 729.215 633.333 719.568 637.927C709.921 642.291 701.537 648.378 694.417 656.187C687.297 663.767 681.669 672.61 677.535 682.716C673.401 692.823 671.333 703.618 671.333 715.102ZM915.468 597.272C915.468 596.124 915.812 595.205 916.501 594.516C917.42 593.597 918.453 593.138 919.602 593.138H1101.52C1102.66 593.138 1103.58 593.597 1104.27 594.516C1105.19 595.205 1105.65 596.124 1105.65 597.272V647.918C1105.65 651.134 1104.62 654.005 1102.55 656.532L1048.11 727.85L1125.98 829.487C1126.67 830.636 1126.67 831.784 1125.98 832.933C1125.52 833.852 1124.71 834.311 1123.57 834.311H1079.81C1075.22 834.311 1071.43 832.473 1068.44 828.798L992.988 730.606C991.38 728.769 991.38 727.046 992.988 725.438L1060.86 636.893H959.568V830.177C959.568 832.933 958.075 834.311 955.089 834.311H919.602C918.453 834.311 917.42 833.966 916.501 833.277C915.812 832.359 915.468 831.325 915.468 830.177V597.272ZM1158.49 593.827H1191.22C1195.81 593.827 1199.6 595.664 1202.59 599.339L1379.68 830.177C1380.6 831.095 1380.71 832.129 1380.02 833.277C1379.56 834.426 1378.64 835 1377.27 835H1333.51C1328.92 835 1325.13 833.162 1322.14 829.487L1262.54 751.623L1202.59 829.487C1199.6 833.162 1195.81 835 1191.22 835H1158.49C1157.34 835 1156.31 834.655 1155.39 833.966C1154.7 833.048 1154.35 832.014 1154.35 830.866V597.961C1154.35 596.813 1154.7 595.894 1155.39 595.205C1156.31 594.286 1157.34 593.827 1158.49 593.827ZM1344.54 597.961C1344.54 595.205 1346.03 593.827 1349.01 593.827H1381.74C1386.11 593.827 1389.78 595.664 1392.77 599.339L1516.8 760.581V597.961C1516.8 595.205 1518.18 593.827 1520.94 593.827H1556.42C1559.41 593.827 1560.9 595.205 1560.9 597.961V830.866C1560.9 832.014 1560.44 833.048 1559.52 833.966C1558.61 834.655 1557.57 835 1556.42 835H1523.69C1519.1 835 1515.31 833.162 1512.32 829.487L1388.64 668.246V762.648C1388.64 764.026 1387.95 764.945 1386.57 765.404C1385.19 765.864 1384.04 765.519 1383.12 764.371L1347.64 718.203C1345.57 715.677 1344.54 712.805 1344.54 709.59V597.961ZM1198.45 668.246V760.581L1233.94 714.413L1198.45 668.246ZM1598.87 597.272C1598.87 596.124 1599.21 595.205 1599.9 594.516C1600.82 593.597 1601.85 593.138 1603 593.138H1752.53C1757.12 593.138 1760.91 594.975 1763.9 598.65L1789.4 632.07C1790.31 633.218 1790.43 634.367 1789.74 635.515C1789.28 636.434 1788.36 636.893 1786.98 636.893H1710.15V830.177C1710.15 832.933 1708.77 834.311 1706.02 834.311H1670.53C1667.77 834.311 1666.4 832.933 1666.4 830.177V636.893H1603C1601.85 636.893 1600.82 636.549 1599.9 635.86C1599.21 634.941 1598.87 633.907 1598.87 632.759V597.272Z"/>
</mask>
<path d="M-4.2508 598.65L-0.904162 596.076L-0.938431 596.031L-0.973874 595.988L-4.2508 598.65ZM119.781 759.892L116.435 762.466L124.003 772.306V759.892H119.781ZM120.815 594.516L123.8 597.501L123.8 597.501L120.815 594.516ZM162.159 594.516L158.781 597.049L159.143 597.532L159.626 597.894L162.159 594.516ZM115.302 828.798L111.952 831.368L111.988 831.415L112.025 831.461L115.302 828.798ZM-61.7879 597.961L-58.4379 595.391L-58.6065 595.171L-58.8023 594.975L-61.7879 597.961ZM-62.1324 594.86L-65.7529 592.688L-65.7529 592.688L-62.1324 594.86ZM-59.3761 597.36H-15.6204V588.915H-59.3761V597.36ZM-15.6204 597.36C-12.3427 597.36 -9.7405 598.589 -7.52772 601.313L-0.973874 595.988C-4.73301 591.361 -9.71056 588.915 -15.6204 588.915V597.36ZM-7.59743 601.224L116.435 762.466L123.128 757.317L-0.904162 596.076L-7.59743 601.224ZM124.003 759.892V597.272H115.559V759.892H124.003ZM124.003 597.272C124.003 597.119 124.026 597.116 123.993 597.204C123.977 597.247 123.951 597.301 123.914 597.359C123.877 597.416 123.837 597.465 123.8 597.501L117.829 591.53C116.208 593.151 115.559 595.219 115.559 597.272H124.003ZM123.8 597.501C123.947 597.354 124.016 597.331 123.994 597.34C123.985 597.344 123.968 597.351 123.946 597.355C123.924 597.36 123.912 597.36 123.916 597.36V588.915C121.497 588.915 119.426 589.933 117.829 591.53L123.8 597.501ZM123.916 597.36H159.403V588.915H123.916V597.36ZM159.403 597.36C159.407 597.36 159.371 597.36 159.305 597.345C159.237 597.33 159.153 597.303 159.065 597.259C158.976 597.214 158.904 597.164 158.851 597.119C158.799 597.074 158.778 597.045 158.781 597.049L165.537 591.982C164.05 590 161.88 588.915 159.403 588.915V597.36ZM159.626 597.894C159.629 597.896 159.6 597.875 159.556 597.823C159.511 597.77 159.46 597.698 159.416 597.61C159.372 597.521 159.344 597.438 159.329 597.37C159.314 597.303 159.315 597.267 159.315 597.272H167.759C167.759 594.795 166.674 592.624 164.692 591.138L159.626 597.894ZM159.315 597.272V830.177H167.759V597.272H159.315ZM159.315 830.177C159.315 830.347 159.304 830.468 159.293 830.548C159.281 830.628 159.27 830.658 159.273 830.65C159.276 830.641 159.293 830.594 159.335 830.524C159.378 830.452 159.439 830.371 159.518 830.292C159.597 830.213 159.678 830.152 159.75 830.109C159.82 830.067 159.867 830.05 159.876 830.047C159.884 830.044 159.854 830.055 159.774 830.067C159.694 830.078 159.573 830.089 159.403 830.089V838.533C161.432 838.533 163.729 838.023 165.489 836.263C167.249 834.503 167.759 832.206 167.759 830.177H159.315ZM159.403 830.089H126.672V838.533H159.403V830.089ZM126.672 830.089C123.394 830.089 120.792 828.859 118.579 826.136L112.025 831.461C115.784 836.088 120.762 838.533 126.672 838.533V830.089ZM118.652 826.228L-58.4379 595.391L-65.1378 600.531L111.952 831.368L118.652 826.228ZM-58.8023 594.975C-58.7568 595.021 -58.4393 595.377 -58.3667 596.031C-58.2959 596.667 -58.5186 597.044 -58.5119 597.033L-65.7529 592.688C-66.4353 593.825 -66.9451 595.293 -66.7595 596.963C-66.572 598.65 -65.7377 599.982 -64.7734 600.947L-58.8023 594.975ZM-58.5119 597.033C-58.431 596.898 -58.4644 597.008 -58.6888 597.149C-58.7995 597.218 -58.9281 597.276 -59.0644 597.313C-59.1989 597.351 -59.3082 597.36 -59.3761 597.36V588.915C-62.2777 588.915 -64.4508 590.518 -65.7529 592.688L-58.5119 597.033ZM214.313 595.205L211.327 592.219L211.327 592.219L214.313 595.205ZM261.514 599.339L264.861 596.766L264.826 596.721L264.791 596.677L261.514 599.339ZM438.948 830.177L442.569 828.004L442.444 827.796L442.296 827.603L438.948 830.177ZM438.948 833.622L435.328 831.45L435.244 831.589L435.172 831.734L438.948 833.622ZM381.067 829.487L377.714 832.054L377.751 832.102L377.79 832.15L381.067 829.487ZM321.462 751.623L324.815 749.056L321.472 744.689L318.117 749.047L321.462 751.623ZM261.514 829.487L264.791 832.15L264.825 832.107L264.859 832.063L261.514 829.487ZM214.313 833.966L210.935 836.5L211.297 836.982L211.779 837.344L214.313 833.966ZM257.379 668.246L260.727 665.673L253.157 655.825V668.246H257.379ZM257.379 760.581H253.157V773.002L260.727 763.154L257.379 760.581ZM292.866 714.413L296.214 716.986L298.192 714.413L296.214 711.84L292.866 714.413ZM217.501 830.866V597.961H209.057V830.866H217.501ZM217.501 597.961C217.501 597.808 217.524 597.805 217.491 597.893C217.475 597.936 217.449 597.99 217.412 598.048C217.375 598.105 217.335 598.154 217.298 598.19L211.327 592.219C209.706 593.84 209.057 595.908 209.057 597.961H217.501ZM217.298 598.19C217.445 598.044 217.513 598.02 217.492 598.029C217.483 598.033 217.465 598.04 217.443 598.044C217.422 598.049 217.41 598.049 217.413 598.049V589.604C214.994 589.604 212.924 590.622 211.327 592.219L217.298 598.19ZM217.413 598.049H250.144V589.604H217.413V598.049ZM250.144 598.049C253.422 598.049 256.024 599.278 258.237 602.002L264.791 596.677C261.031 592.05 256.054 589.604 250.144 589.604V598.049ZM258.166 601.912L435.601 832.75L442.296 827.603L264.861 596.766L258.166 601.912ZM435.328 832.349C435.345 832.377 435.243 832.21 435.243 831.899C435.243 831.589 435.345 831.421 435.328 831.45L442.569 835.794C443.241 834.674 443.687 833.358 443.687 831.899C443.687 830.44 443.241 829.124 442.569 828.004L435.328 832.349ZM435.172 831.734C435.249 831.579 435.366 831.405 435.532 831.239C435.698 831.074 435.872 830.956 436.026 830.879C436.318 830.733 436.439 830.778 436.192 830.778V839.222C438.532 839.222 441.304 838.352 442.725 835.51L435.172 831.734ZM436.192 830.778H392.436V839.222H436.192V830.778ZM392.436 830.778C389.159 830.778 386.556 829.548 384.344 826.825L377.79 832.15C381.549 836.777 386.526 839.222 392.436 839.222V830.778ZM384.419 826.921L324.815 749.056L318.11 754.189L377.714 832.054L384.419 826.921ZM318.117 749.047L258.168 826.912L264.859 832.063L324.808 754.199L318.117 749.047ZM258.237 826.825C256.024 829.548 253.422 830.778 250.144 830.778V839.222C256.054 839.222 261.031 836.777 264.791 832.15L258.237 826.825ZM250.144 830.778H217.413V839.222H250.144V830.778ZM217.413 830.778C217.178 830.778 217.034 830.73 216.846 830.589L211.779 837.344C213.429 838.581 215.351 839.222 217.413 839.222V830.778ZM217.69 831.433C217.549 831.245 217.501 831.1 217.501 830.866H209.057C209.057 832.928 209.698 834.85 210.935 836.5L217.69 831.433ZM253.157 668.246V760.581H261.601V668.246H253.157ZM260.727 763.154L296.214 716.986L289.519 711.84L254.032 758.008L260.727 763.154ZM296.214 711.84L260.727 665.673L254.032 670.819L289.519 716.986L296.214 711.84ZM510.396 791.244H506.174V795.466H510.396V791.244ZM609.622 792.967L605.701 794.535L605.827 794.849L606.001 795.139L609.622 792.967ZM609.622 796.068L612.962 798.65L612.981 798.626L612.999 798.601L609.622 796.068ZM583.782 829.487L587.058 832.15L587.091 832.11L587.122 832.07L583.782 829.487ZM467.329 833.966L463.951 836.5L464.313 836.982L464.796 837.344L467.329 833.966ZM467.329 595.205L464.344 592.219L464.344 592.219L467.329 595.205ZM470.43 598.049H505.917V589.604H470.43V598.049ZM505.917 598.049C506.129 598.049 506.293 598.061 506.415 598.077C506.536 598.093 506.606 598.112 506.635 598.121C506.663 598.129 506.646 598.127 506.601 598.102C506.553 598.075 506.486 598.031 506.412 597.963C506.338 597.894 506.275 597.818 506.226 597.743C506.178 597.668 506.154 597.611 506.145 597.586C506.129 597.543 506.174 597.642 506.174 597.961H514.618C514.618 595.841 514.028 593.501 512.14 591.758C510.316 590.074 507.981 589.604 505.917 589.604V598.049ZM506.174 597.961V791.244H514.618V597.961H506.174ZM510.396 795.466H606.865V787.022H510.396V795.466ZM606.865 795.466C606.976 795.466 606.722 795.488 606.35 795.255C605.944 795.002 605.755 794.67 605.701 794.535L613.542 791.399C613.028 790.115 612.15 788.922 610.826 788.094C609.535 787.288 608.133 787.022 606.865 787.022V795.466ZM606.001 795.139C606.066 795.247 605.916 795.047 605.916 794.603C605.916 794.382 605.955 794.159 606.028 793.952C606.099 793.75 606.186 793.611 606.244 793.534L612.999 798.601C613.828 797.496 614.361 796.135 614.361 794.603C614.361 793.127 613.866 791.835 613.242 790.795L606.001 795.139ZM606.281 793.485L580.441 826.905L587.122 832.07L612.962 798.65L606.281 793.485ZM580.505 826.825C578.243 829.609 575.731 830.778 572.756 830.778V839.222C578.51 839.222 583.349 836.716 587.058 832.15L580.505 826.825ZM572.756 830.778H470.43V839.222H572.756V830.778ZM470.43 830.778C470.195 830.778 470.05 830.73 469.863 830.589L464.796 837.344C466.445 838.581 468.368 839.222 470.43 839.222V830.778ZM470.707 831.433C470.566 831.245 470.518 831.1 470.518 830.866H462.073C462.073 832.928 462.714 834.85 463.951 836.5L470.707 831.433ZM470.518 830.866V597.961H462.073V830.866H470.518ZM470.518 597.961C470.518 597.808 470.54 597.805 470.507 597.893C470.491 597.936 470.466 597.99 470.429 598.048C470.392 598.105 470.352 598.154 470.315 598.19L464.344 592.219C462.723 593.84 462.073 595.908 462.073 597.961H470.518ZM470.315 598.19C470.462 598.044 470.53 598.02 470.508 598.029C470.499 598.033 470.482 598.04 470.46 598.044C470.438 598.049 470.426 598.049 470.43 598.049V589.604C468.011 589.604 465.941 590.622 464.344 592.219L470.315 598.19ZM636.88 664.111L633.005 662.434L632.999 662.448L632.993 662.462L636.88 664.111ZM663.409 624.49L666.395 627.476L666.395 627.476L663.409 624.49ZM703.03 598.306L704.629 602.213L704.654 602.203L704.679 602.192L703.03 598.306ZM751.954 589.003L751.899 593.225L751.954 589.003ZM800.878 599.339L799.179 603.205L799.179 603.205L800.878 599.339ZM840.155 626.557L837.109 629.481L837.124 629.497L837.139 629.513L840.155 626.557ZM866.684 666.868L862.788 668.496L862.792 668.506L862.797 668.517L866.684 666.868ZM875.986 715.447L871.764 715.391L871.764 715.391L875.986 715.447ZM865.65 764.371L869.516 766.069L869.516 766.069L865.65 764.371ZM838.432 803.992L835.477 800.976L835.462 800.991L835.446 801.006L838.432 803.992ZM798.811 830.521L800.409 834.429L800.435 834.419L800.46 834.408L798.811 830.521ZM701.308 830.177L699.587 834.032L699.623 834.048L699.659 834.063L701.308 830.177ZM662.375 803.303L659.33 806.227L659.344 806.242L659.359 806.258L662.375 803.303ZM636.535 762.993L632.619 764.571L632.619 764.571L636.535 762.993ZM677.879 747.144L674.003 748.818L674.003 748.818L677.879 747.144ZM695.451 773.673L698.482 770.734L695.451 773.673ZM720.946 791.589L719.206 795.436L719.206 795.436L720.946 791.589ZM751.954 798.135V802.357H751.999L752.044 802.356L751.954 798.135ZM782.618 790.9L780.802 787.088L780.802 787.088L782.618 790.9ZM807.769 772.639L804.694 769.746L804.691 769.749L807.769 772.639ZM824.995 745.766L828.903 747.365L828.909 747.349L828.915 747.334L824.995 745.766ZM830.852 713.38H826.63V713.423L826.631 713.466L830.852 713.38ZM806.735 655.154L803.704 658.093L803.726 658.116L803.749 658.139L806.735 655.154ZM780.895 637.238L779.155 641.085L779.172 641.092L779.188 641.1L780.895 637.238ZM750.231 630.692V626.469H750.187L750.142 626.47L750.231 630.692ZM719.568 637.927L721.308 641.774L721.346 641.757L721.383 641.739L719.568 637.927ZM694.417 656.187L697.494 659.078L697.516 659.055L697.537 659.032L694.417 656.187ZM677.535 682.716L681.443 684.315L681.443 684.315L677.535 682.716ZM631.455 713.38C631.455 696.218 634.573 680.361 640.767 665.76L632.993 662.462C626.325 678.181 623.011 695.17 623.011 713.38H631.455ZM640.755 665.789C647.221 650.851 655.773 638.097 666.395 627.476L660.424 621.505C648.995 632.933 639.861 646.594 633.005 662.434L640.755 665.789ZM666.395 627.476C677.241 616.629 689.973 608.209 704.629 602.213L701.432 594.398C685.769 600.805 672.086 609.842 660.424 621.505L666.395 627.476ZM704.679 602.192C719.268 596.003 734.992 593.003 751.899 593.225L752.01 584.781C734.004 584.544 717.112 587.745 701.381 594.419L704.679 602.192ZM751.899 593.225C768.82 593.448 784.566 596.784 799.179 603.205L802.576 595.474C786.871 588.573 770.001 585.018 752.01 584.781L751.899 593.225ZM799.179 603.205C813.853 609.652 826.482 618.412 837.109 629.481L843.201 623.633C831.777 611.734 818.222 602.348 802.576 595.474L799.179 603.205ZM837.139 629.513C848.005 640.6 856.555 653.582 862.788 668.496L870.579 665.24C863.949 649.375 854.814 635.483 843.17 623.602L837.139 629.513ZM862.797 668.517C868.989 683.112 871.987 698.722 871.764 715.391L880.208 715.503C880.445 697.719 877.241 680.942 870.571 665.219L862.797 668.517ZM871.764 715.391C871.542 732.313 868.206 748.059 861.785 762.672L869.516 766.069C876.417 750.364 879.971 733.494 880.208 715.502L871.764 715.391ZM861.785 762.672C855.334 777.354 846.565 790.11 835.477 800.976L841.387 807.008C853.268 795.365 862.645 781.707 869.516 766.069L861.785 762.672ZM835.446 801.006C824.589 811.864 811.839 820.407 797.162 826.634L800.46 834.408C816.101 827.772 829.766 818.629 841.418 806.978L835.446 801.006ZM797.212 826.613C782.593 832.594 766.832 835.601 749.887 835.601V844.046C767.855 844.046 784.71 840.852 800.409 834.429L797.212 826.613ZM749.887 835.601C733.2 835.601 717.571 832.489 702.957 826.29L699.659 834.063C715.364 840.726 732.12 844.046 749.887 844.046V835.601ZM703.028 826.321C688.564 819.868 676.031 811.21 665.392 800.348L659.359 806.258C670.77 817.906 684.191 827.163 699.587 834.032L703.028 826.321ZM665.421 800.379C654.785 789.3 646.46 776.325 640.452 761.414L632.619 764.571C639.014 780.438 647.915 794.337 659.33 806.227L665.421 800.379ZM640.452 761.414C634.465 746.559 631.455 730.561 631.455 713.38H623.011C623.011 731.57 626.202 748.648 632.619 764.571L640.452 761.414ZM667.111 715.102C667.111 726.92 669.406 738.171 674.003 748.818L681.756 745.47C677.625 735.904 675.556 725.795 675.556 715.102H667.111ZM674.003 748.818C678.561 759.373 684.698 768.65 692.42 776.612L698.482 770.734C691.503 763.537 685.926 755.127 681.756 745.47L674.003 748.818ZM692.42 776.612C700.14 784.574 709.077 790.854 719.206 795.436L722.686 787.742C713.522 783.596 705.461 777.931 698.482 770.734L692.42 776.612ZM719.206 795.436C729.422 800.057 740.354 802.357 751.954 802.357V793.913C741.504 793.913 731.764 791.848 722.686 787.742L719.206 795.436ZM752.044 802.356C763.43 802.114 774.24 799.565 784.433 794.712L780.802 787.088C771.701 791.422 762.069 793.697 751.864 793.914L752.044 802.356ZM784.433 794.712C794.541 789.898 803.356 783.504 810.846 775.53L804.691 769.749C797.94 776.935 789.988 782.713 780.802 787.088L784.433 794.712ZM810.843 775.533C818.555 767.34 824.576 757.941 828.903 747.365L821.087 744.167C817.145 753.803 811.683 762.32 804.694 769.746L810.843 775.533ZM828.915 747.334C833.263 736.466 835.315 725.108 835.074 713.294L826.631 713.466C826.849 724.161 824.997 734.393 821.075 744.198L828.915 747.334ZM835.075 713.38C835.075 701.562 832.78 690.311 828.182 679.664L820.43 683.012C824.561 692.578 826.63 702.687 826.63 713.38H835.075ZM828.182 679.664C823.62 669.098 817.47 659.917 809.721 652.168L803.749 658.139C810.7 665.09 816.265 673.366 820.43 683.012L828.182 679.664ZM809.766 652.214C802.029 644.236 792.963 637.954 782.601 633.376L779.188 641.1C788.58 645.25 796.741 650.912 803.704 658.093L809.766 652.214ZM782.635 633.391C772.431 628.775 761.615 626.469 750.231 626.469V634.914C760.439 634.914 770.065 636.973 779.155 641.085L782.635 633.391ZM750.142 626.47C738.755 626.713 727.945 629.261 717.753 634.115L721.383 641.739C730.485 637.405 740.117 635.13 750.321 634.913L750.142 626.47ZM717.828 634.08C707.659 638.68 698.805 645.108 691.297 653.342L697.537 659.032C704.27 651.648 712.184 645.902 721.308 641.774L717.828 634.08ZM691.34 653.296C683.848 661.271 677.947 670.558 673.627 681.118L681.443 684.315C685.392 674.662 690.745 666.263 697.494 659.078L691.34 653.296ZM673.627 681.118C669.274 691.757 667.111 703.099 667.111 715.102H675.556C675.556 704.137 677.527 693.888 681.443 684.315L673.627 681.118ZM916.501 594.516L919.487 597.501L919.487 597.501L916.501 594.516ZM1104.27 594.516L1100.89 597.049L1101.26 597.532L1101.74 597.893L1104.27 594.516ZM1102.55 656.532L1099.28 653.858L1099.24 653.913L1099.19 653.97L1102.55 656.532ZM1048.11 727.85L1044.76 725.288L1042.8 727.855L1044.76 730.418L1048.11 727.85ZM1125.98 829.487L1129.6 827.315L1129.47 827.11L1129.33 826.92L1125.98 829.487ZM1125.98 832.933L1122.36 830.76L1122.27 830.9L1122.2 831.045L1125.98 832.933ZM1068.44 828.798L1065.09 831.371L1065.13 831.416L1065.16 831.461L1068.44 828.798ZM992.988 730.606L996.335 728.034L996.254 727.927L996.165 727.826L992.988 730.606ZM992.988 725.438L995.973 728.424L996.17 728.228L996.339 728.007L992.988 725.438ZM1060.86 636.893L1064.21 639.462L1069.42 632.671H1060.86V636.893ZM959.568 636.893V632.671H955.346V636.893H959.568ZM916.501 833.277L913.123 835.811L913.485 836.293L913.968 836.655L916.501 833.277ZM919.69 597.272C919.69 597.119 919.712 597.116 919.679 597.204C919.663 597.247 919.638 597.301 919.601 597.359C919.564 597.416 919.523 597.465 919.487 597.501L913.516 591.53C911.895 593.151 911.245 595.219 911.245 597.272H919.69ZM919.487 597.501C919.633 597.354 919.702 597.331 919.68 597.34C919.671 597.344 919.654 597.351 919.632 597.355C919.61 597.36 919.598 597.36 919.602 597.36V588.915C917.183 588.915 915.113 589.933 913.516 591.53L919.487 597.501ZM919.602 597.36H1101.52V588.915H919.602V597.36ZM1101.52 597.36C1101.52 597.36 1101.48 597.36 1101.42 597.345C1101.35 597.33 1101.27 597.303 1101.18 597.259C1101.09 597.214 1101.02 597.164 1100.96 597.119C1100.91 597.074 1100.89 597.045 1100.89 597.049L1107.65 591.982C1106.16 590 1103.99 588.915 1101.52 588.915V597.36ZM1101.74 597.893C1101.74 597.896 1101.71 597.875 1101.67 597.823C1101.62 597.77 1101.57 597.698 1101.53 597.61C1101.48 597.521 1101.46 597.438 1101.44 597.37C1101.43 597.303 1101.43 597.267 1101.43 597.272H1109.87C1109.87 594.795 1108.79 592.624 1106.81 591.138L1101.74 597.893ZM1101.43 597.272V647.918H1109.87V597.272H1101.43ZM1101.43 647.918C1101.43 650.143 1100.74 652.073 1099.28 653.858L1105.82 659.205C1108.49 655.937 1109.87 652.125 1109.87 647.918H1101.43ZM1099.19 653.97L1044.76 725.288L1051.47 730.412L1105.91 659.093L1099.19 653.97ZM1044.76 730.418L1122.63 832.055L1129.33 826.92L1051.46 725.282L1044.76 730.418ZM1122.36 831.66C1122.37 831.688 1122.27 831.521 1122.27 831.21C1122.27 830.9 1122.37 830.732 1122.36 830.76L1129.6 835.105C1130.27 833.985 1130.72 832.669 1130.72 831.21C1130.72 829.751 1130.27 828.435 1129.6 827.315L1122.36 831.66ZM1122.2 831.045C1122.3 830.843 1122.54 830.529 1122.94 830.3C1123.31 830.088 1123.58 830.089 1123.57 830.089V838.533C1124.7 838.533 1125.95 838.304 1127.12 837.632C1128.33 836.944 1129.19 835.941 1129.75 834.821L1122.2 831.045ZM1123.57 830.089H1079.81V838.533H1123.57V830.089ZM1079.81 830.089C1076.53 830.089 1073.93 828.859 1071.72 826.136L1065.16 831.461C1068.92 836.088 1073.9 838.533 1079.81 838.533V830.089ZM1071.79 826.226L996.335 728.034L989.64 733.179L1065.09 831.371L1071.79 826.226ZM996.165 727.826C995.971 727.605 995.925 727.498 995.931 727.512C995.944 727.54 996.004 727.692 996.004 727.936C996.004 728.187 995.94 728.388 995.885 728.501C995.84 728.597 995.832 728.565 995.973 728.424L990.002 722.453C988.669 723.786 987.559 725.632 987.559 727.936C987.559 730.176 988.611 732.017 989.81 733.387L996.165 727.826ZM996.339 728.007L1064.21 639.462L1057.51 634.325L989.637 722.87L996.339 728.007ZM1060.86 632.671H959.568V641.116H1060.86V632.671ZM955.346 636.893V830.177H963.79V636.893H955.346ZM955.346 830.177C955.346 830.496 955.301 830.594 955.317 830.551C955.326 830.526 955.35 830.469 955.398 830.395C955.447 830.319 955.51 830.243 955.584 830.175C955.658 830.107 955.725 830.062 955.773 830.036C955.818 830.011 955.835 830.008 955.807 830.017C955.778 830.026 955.708 830.044 955.587 830.06C955.465 830.076 955.301 830.089 955.089 830.089V838.533C957.153 838.533 959.487 838.064 961.312 836.38C963.2 834.637 963.79 832.296 963.79 830.177H955.346ZM955.089 830.089H919.602V838.533H955.089V830.089ZM919.602 830.089C919.367 830.089 919.222 830.04 919.034 829.9L913.968 836.655C915.617 837.892 917.54 838.533 919.602 838.533V830.089ZM919.879 830.744C919.738 830.556 919.69 830.411 919.69 830.177H911.245C911.245 832.239 911.886 834.161 913.123 835.811L919.879 830.744ZM919.69 830.177V597.272H911.245V830.177H919.69ZM1202.59 599.339L1205.94 596.769L1205.9 596.722L1205.86 596.677L1202.59 599.339ZM1379.68 830.177L1376.33 832.747L1376.5 832.966L1376.69 833.162L1379.68 830.177ZM1380.02 833.277L1376.4 831.105L1376.23 831.395L1376.1 831.709L1380.02 833.277ZM1322.14 829.487L1318.79 832.054L1318.83 832.102L1318.86 832.15L1322.14 829.487ZM1262.54 751.623L1265.89 749.056L1262.55 744.689L1259.19 749.047L1262.54 751.623ZM1202.59 829.487L1205.86 832.15L1205.9 832.107L1205.93 832.063L1202.59 829.487ZM1155.39 833.966L1152.01 836.5L1152.37 836.982L1152.85 837.344L1155.39 833.966ZM1155.39 595.205L1152.4 592.219L1152.4 592.219L1155.39 595.205ZM1392.77 599.339L1396.12 596.765L1396.08 596.72L1396.05 596.677L1392.77 599.339ZM1516.8 760.581L1513.46 763.155L1521.02 772.995V760.581H1516.8ZM1559.52 833.966L1562.06 837.344L1562.3 837.164L1562.51 836.952L1559.52 833.966ZM1512.32 829.487L1508.97 832.057L1509.01 832.104L1509.05 832.15L1512.32 829.487ZM1388.64 668.246L1391.99 665.676L1384.41 655.805V668.246H1388.64ZM1383.12 764.371L1379.78 766.944L1379.8 766.976L1379.83 767.008L1383.12 764.371ZM1347.64 718.203L1350.98 715.63L1350.94 715.579L1350.9 715.53L1347.64 718.203ZM1198.45 668.246L1201.8 665.673L1194.23 655.825V668.246H1198.45ZM1198.45 760.581H1194.23V773.002L1201.8 763.154L1198.45 760.581ZM1233.94 714.413L1237.29 716.986L1239.27 714.413L1237.29 711.84L1233.94 714.413ZM1158.49 598.049H1191.22V589.604H1158.49V598.049ZM1191.22 598.049C1194.5 598.049 1197.1 599.278 1199.31 602.002L1205.86 596.677C1202.11 592.05 1197.13 589.604 1191.22 589.604V598.049ZM1199.24 601.909L1376.33 832.747L1383.03 827.607L1205.94 596.769L1199.24 601.909ZM1376.69 833.162C1376.65 833.117 1376.33 832.761 1376.26 832.107C1376.19 831.47 1376.41 831.094 1376.4 831.105L1383.64 835.45C1384.33 834.312 1384.83 832.845 1384.65 831.175C1384.46 829.487 1383.63 828.155 1382.66 827.191L1376.69 833.162ZM1376.1 831.709C1376.16 831.574 1376.35 831.243 1376.75 830.989C1377.12 830.756 1377.38 830.778 1377.27 830.778V839.222C1378.53 839.222 1379.94 838.956 1381.23 838.15C1382.55 837.322 1383.43 836.129 1383.94 834.845L1376.1 831.709ZM1377.27 830.778H1333.51V839.222H1377.27V830.778ZM1333.51 830.778C1330.23 830.778 1327.63 829.548 1325.42 826.825L1318.86 832.15C1322.62 836.777 1327.6 839.222 1333.51 839.222V830.778ZM1325.49 826.921L1265.89 749.056L1259.18 754.189L1318.79 832.054L1325.49 826.921ZM1259.19 749.047L1199.24 826.912L1205.93 832.063L1265.88 754.199L1259.19 749.047ZM1199.31 826.825C1197.1 829.548 1194.5 830.778 1191.22 830.778V839.222C1197.13 839.222 1202.11 836.777 1205.86 832.15L1199.31 826.825ZM1191.22 830.778H1158.49V839.222H1191.22V830.778ZM1158.49 830.778C1158.25 830.778 1158.11 830.73 1157.92 830.589L1152.85 837.344C1154.5 838.581 1156.43 839.222 1158.49 839.222V830.778ZM1158.76 831.433C1158.62 831.245 1158.58 831.1 1158.58 830.866H1150.13C1150.13 832.928 1150.77 834.85 1152.01 836.5L1158.76 831.433ZM1158.58 830.866V597.961H1150.13V830.866H1158.58ZM1158.58 597.961C1158.58 597.808 1158.6 597.805 1158.56 597.893C1158.55 597.936 1158.52 597.99 1158.49 598.048C1158.45 598.105 1158.41 598.154 1158.37 598.19L1152.4 592.219C1150.78 593.84 1150.13 595.908 1150.13 597.961H1158.58ZM1158.37 598.19C1158.52 598.044 1158.59 598.02 1158.57 598.029C1158.56 598.033 1158.54 598.04 1158.52 598.044C1158.5 598.049 1158.48 598.049 1158.49 598.049V589.604C1156.07 589.604 1154 590.622 1152.4 592.219L1158.37 598.19ZM1348.76 597.961C1348.76 597.642 1348.8 597.543 1348.79 597.586C1348.78 597.611 1348.75 597.668 1348.71 597.743C1348.66 597.818 1348.59 597.894 1348.52 597.963C1348.45 598.031 1348.38 598.075 1348.33 598.102C1348.28 598.127 1348.27 598.129 1348.3 598.121C1348.33 598.112 1348.4 598.093 1348.52 598.077C1348.64 598.061 1348.8 598.049 1349.01 598.049V589.604C1346.95 589.604 1344.62 590.074 1342.79 591.758C1340.9 593.501 1340.31 595.841 1340.31 597.961H1348.76ZM1349.01 598.049H1381.74V589.604H1349.01V598.049ZM1381.74 598.049C1384.72 598.049 1387.23 599.218 1389.49 602.002L1396.05 596.677C1392.34 592.111 1387.5 589.604 1381.74 589.604V598.049ZM1389.42 601.914L1513.46 763.155L1520.15 758.006L1396.12 596.765L1389.42 601.914ZM1521.02 760.581V597.961H1512.58V760.581H1521.02ZM1521.02 597.961C1521.02 597.791 1521.04 597.669 1521.05 597.589C1521.06 597.51 1521.07 597.479 1521.07 597.487C1521.06 597.497 1521.05 597.544 1521 597.614C1520.96 597.686 1520.9 597.767 1520.82 597.846C1520.74 597.925 1520.66 597.986 1520.59 598.029C1520.52 598.071 1520.47 598.087 1520.46 598.091C1520.45 598.093 1520.48 598.082 1520.56 598.071C1520.64 598.06 1520.77 598.049 1520.94 598.049V589.604C1518.91 589.604 1516.61 590.115 1514.85 591.875C1513.09 593.635 1512.58 595.932 1512.58 597.961H1521.02ZM1520.94 598.049H1556.42V589.604H1520.94V598.049ZM1556.42 598.049C1556.64 598.049 1556.8 598.061 1556.92 598.077C1557.04 598.093 1557.11 598.112 1557.14 598.121C1557.17 598.129 1557.15 598.127 1557.11 598.102C1557.06 598.075 1556.99 598.031 1556.92 597.963C1556.84 597.894 1556.78 597.818 1556.73 597.743C1556.68 597.668 1556.66 597.611 1556.65 597.586C1556.64 597.543 1556.68 597.642 1556.68 597.961H1565.12C1565.12 595.841 1564.53 593.501 1562.65 591.758C1560.82 590.074 1558.49 589.604 1556.42 589.604V598.049ZM1556.68 597.961V830.866H1565.12V597.961H1556.68ZM1556.68 830.866C1556.68 830.869 1556.68 830.857 1556.68 830.836C1556.69 830.814 1556.7 830.796 1556.7 830.787C1556.71 830.766 1556.69 830.834 1556.54 830.981L1562.51 836.952C1564.11 835.355 1565.12 833.285 1565.12 830.866H1556.68ZM1556.99 830.589C1556.8 830.73 1556.66 830.778 1556.42 830.778V839.222C1558.49 839.222 1560.41 838.581 1562.06 837.344L1556.99 830.589ZM1556.42 830.778H1523.69V839.222H1556.42V830.778ZM1523.69 830.778C1520.42 830.778 1517.81 829.548 1515.6 826.825L1509.05 832.15C1512.81 836.777 1517.78 839.222 1523.69 839.222V830.778ZM1515.67 826.918L1391.99 665.676L1385.29 670.816L1508.97 832.057L1515.67 826.918ZM1384.41 668.246V762.648H1392.86V668.246H1384.41ZM1384.41 762.648C1384.41 762.611 1384.43 762.246 1384.74 761.837C1385.03 761.447 1385.32 761.369 1385.23 761.399L1387.9 769.41C1389.19 768.981 1390.52 768.213 1391.5 766.904C1392.49 765.577 1392.86 764.063 1392.86 762.648H1384.41ZM1385.23 761.399C1385.19 761.413 1385.46 761.32 1385.89 761.446C1386.3 761.571 1386.47 761.791 1386.42 761.733L1379.83 767.008C1380.7 768.099 1381.89 769.065 1383.46 769.535C1385.03 770.006 1386.57 769.855 1387.9 769.41L1385.23 761.399ZM1386.47 761.798L1350.98 715.63L1344.29 720.776L1379.78 766.944L1386.47 761.798ZM1350.9 715.53C1349.44 713.745 1348.76 711.815 1348.76 709.59H1340.31C1340.31 713.796 1341.69 717.608 1344.37 720.877L1350.9 715.53ZM1348.76 709.59V597.961H1340.31V709.59H1348.76ZM1194.23 668.246V760.581H1202.68V668.246H1194.23ZM1201.8 763.154L1237.29 716.986L1230.59 711.84L1195.11 758.008L1201.8 763.154ZM1237.29 711.84L1201.8 665.673L1195.11 670.819L1230.59 716.986L1237.29 711.84ZM1599.9 594.516L1602.89 597.501L1602.89 597.501L1599.9 594.516ZM1763.9 598.65L1767.26 596.089L1767.22 596.038L1767.18 595.988L1763.9 598.65ZM1789.4 632.07L1786.04 634.631L1786.07 634.669L1786.1 634.707L1789.4 632.07ZM1789.74 635.515L1786.12 633.343L1786.04 633.482L1785.96 633.627L1789.74 635.515ZM1710.15 636.893V632.671H1705.93V636.893H1710.15ZM1666.4 636.893H1670.62V632.671H1666.4V636.893ZM1599.9 635.86L1596.52 638.393L1596.89 638.876L1597.37 639.238L1599.9 635.86ZM1603.09 597.272C1603.09 597.119 1603.11 597.116 1603.08 597.204C1603.06 597.247 1603.04 597.301 1603 597.359C1602.96 597.416 1602.92 597.465 1602.89 597.501L1596.92 591.53C1595.3 593.151 1594.65 595.219 1594.65 597.272H1603.09ZM1602.89 597.501C1603.03 597.354 1603.1 597.331 1603.08 597.34C1603.07 597.344 1603.05 597.351 1603.03 597.355C1603.01 597.36 1603 597.36 1603 597.36V588.915C1600.58 588.915 1598.51 589.933 1596.92 591.53L1602.89 597.501ZM1603 597.36H1752.53V588.915H1603V597.36ZM1752.53 597.36C1755.81 597.36 1758.41 598.589 1760.62 601.313L1767.18 595.988C1763.42 591.361 1758.44 588.915 1752.53 588.915V597.36ZM1760.54 601.211L1786.04 634.631L1792.75 629.509L1767.26 596.089L1760.54 601.211ZM1786.1 634.707C1786.19 634.819 1786.01 634.645 1785.97 634.213C1785.95 634.003 1785.97 633.802 1786.01 633.63C1786.05 633.464 1786.1 633.367 1786.12 633.343L1793.36 637.687C1794.09 636.464 1794.53 634.991 1794.37 633.372C1794.21 631.792 1793.52 630.47 1792.69 629.432L1786.1 634.707ZM1785.96 633.627C1786.04 633.473 1786.16 633.298 1786.32 633.133C1786.49 632.967 1786.66 632.849 1786.82 632.772C1787.11 632.626 1787.23 632.671 1786.98 632.671V641.116C1789.32 641.116 1792.1 640.245 1793.52 637.403L1785.96 633.627ZM1786.98 632.671H1710.15V641.116H1786.98V632.671ZM1705.93 636.893V830.177H1714.37V636.893H1705.93ZM1705.93 830.177C1705.93 830.347 1705.92 830.468 1705.91 830.548C1705.9 830.628 1705.89 830.658 1705.89 830.65C1705.89 830.641 1705.91 830.594 1705.95 830.524C1705.99 830.452 1706.05 830.371 1706.13 830.292C1706.21 830.213 1706.29 830.152 1706.37 830.109C1706.44 830.067 1706.48 830.05 1706.49 830.047C1706.5 830.044 1706.47 830.055 1706.39 830.067C1706.31 830.078 1706.19 830.089 1706.02 830.089V838.533C1708.05 838.533 1710.34 838.023 1712.1 836.263C1713.86 834.503 1714.37 832.206 1714.37 830.177H1705.93ZM1706.02 830.089H1670.53V838.533H1706.02V830.089ZM1670.53 830.089C1670.36 830.089 1670.24 830.078 1670.16 830.067C1670.08 830.055 1670.05 830.044 1670.06 830.047C1670.07 830.05 1670.11 830.067 1670.18 830.109C1670.26 830.152 1670.34 830.213 1670.42 830.292C1670.5 830.371 1670.56 830.452 1670.6 830.524C1670.64 830.594 1670.66 830.641 1670.66 830.65C1670.66 830.658 1670.65 830.628 1670.64 830.548C1670.63 830.468 1670.62 830.347 1670.62 830.177H1662.17C1662.17 832.205 1662.68 834.503 1664.44 836.263C1666.21 838.023 1668.5 838.533 1670.53 838.533V830.089ZM1670.62 830.177V636.893H1662.17V830.177H1670.62ZM1666.4 632.671H1603V641.116H1666.4V632.671ZM1603 632.671C1602.77 632.671 1602.62 632.623 1602.44 632.482L1597.37 639.238C1599.02 640.475 1600.94 641.116 1603 641.116V632.671ZM1603.28 633.326C1603.14 633.138 1603.09 632.994 1603.09 632.759H1594.65C1594.65 634.821 1595.29 636.743 1596.52 638.393L1603.28 633.326ZM1603.09 632.759V597.272H1594.65V632.759H1603.09Z" fill="#2B2B2B" fill-opacity="0.05" mask="url(#path-1-outside-1_1_479)"/>
<line x1="304.5" y1="1117" x2="304.5" y2="2.18556e-08" stroke="#2B2B2B"/>
<line x1="1574" y1="200" x2="1584" y2="200" stroke="#2B2B2B" stroke-width="2"/>
<line x1="1574" y1="430" x2="1584" y2="430" stroke="#2B2B2B" stroke-width="2"/>
<line x1="1574" y1="910" x2="1584" y2="910" stroke="#2B2B2B" stroke-width="2"/>
<rect x="1574" y="501" width="10" height="10" fill="#2B2B2B"/>
<rect x="1574" y="517" width="3" height="3" fill="#2B2B2B"/>
<rect x="1574" y="527" width="3" height="3" fill="#2B2B2B"/>
<rect x="1574" y="727" width="3" height="3" fill="#2B2B2B"/>
<line x1="144" y1="200" x2="154" y2="200" stroke="#2B2B2B" stroke-width="2"/>
<line x1="144" y1="430" x2="154" y2="430" stroke="#2B2B2B" stroke-width="2"/>
<line x1="144" y1="910" x2="154" y2="910" stroke="#2B2B2B" stroke-width="2"/>
<rect x="144" y="501" width="10" height="10" fill="#2B2B2B"/>
<rect x="144" y="517" width="3" height="3" fill="#2B2B2B"/>
<rect x="144" y="527" width="3" height="3" fill="#2B2B2B"/>
<rect x="144" y="727" width="3" height="3" fill="#2B2B2B"/>
<rect x="305" y="424" width="10" height="10" fill="#2B2B2B"/>
<rect width="24" height="24" transform="translate(142 352)" fill="white"/>
<path d="M145.064 363.489V356.596L156.809 371.149H150.936L145.064 363.489Z" fill="#1E1E1E"/>
<path d="M162.681 356.596L155.021 366.043H160.894L162.681 363.489V356.596Z" fill="#1E1E1E"/>
<path d="M1237 103.149V-96L1576.29 324.426H1406.65L1237 103.149Z" stroke="black" stroke-opacity="0.05" stroke-width="4.22"/>
<path d="M1745.94 -96L1524.66 176.908H1694.3L1745.94 103.149V-96Z" stroke="black" stroke-opacity="0.05" stroke-width="4.22"/>
</g>
<defs>
<clipPath id="clip0_1_479">
<rect width="1728" height="1117" fill="white"/>
</clipPath>
</defs>
</svg>
