<svg width="425" height="841" viewBox="0 0 425 841" fill="none" xmlns="http://www.w3.org/2000/svg">
<g clip-path="url(#clip0_140_197)">
<rect width="425" height="841" fill="#EB565B"/>
<mask id="path-1-outside-1_140_197" maskUnits="userSpaceOnUse" x="336" y="28" width="82" height="819" fill="black">
<rect fill="white" x="336" y="28" width="82" height="819"/>
<path d="M341.536 32.608H353.728C355.008 32.608 356.064 33.12 356.896 34.144L391.456 79.072V33.76C391.456 33.44 391.552 33.184 391.744 32.992C392 32.736 392.288 32.608 392.608 32.608H402.496C402.816 32.608 403.072 32.736 403.264 32.992C403.52 33.184 403.648 33.44 403.648 33.76V98.656C403.648 99.424 403.264 99.808 402.496 99.808H393.376C392.096 99.808 391.04 99.296 390.208 98.272L340.864 33.952C340.608 33.696 340.576 33.408 340.768 33.088C340.96 32.768 341.216 32.608 341.536 32.608ZM347.008 204.848V139.952C347.008 139.632 347.104 139.376 347.296 139.184C347.552 138.928 347.84 138.8 348.16 138.8H357.28C358.56 138.8 359.616 139.312 360.448 140.336L409.888 204.656C410.08 204.976 410.08 205.296 409.888 205.616C409.76 205.872 409.504 206 409.12 206H396.928C395.648 206 394.592 205.488 393.76 204.464L377.152 182.768L360.448 204.464C359.616 205.488 358.56 206 357.28 206H348.16C347.84 206 347.552 205.904 347.296 205.712C347.104 205.456 347.008 205.168 347.008 204.848ZM359.296 159.536V185.264L369.184 172.4L359.296 159.536ZM348.16 244.8H358.048C358.88 244.8 359.296 245.184 359.296 245.952V299.808H386.176C386.56 299.808 386.816 299.968 386.944 300.288C387.136 300.608 387.136 300.896 386.944 301.152L379.744 310.464C378.912 311.488 377.888 312 376.672 312H348.16C347.84 312 347.552 311.904 347.296 311.712C347.104 311.456 347.008 311.168 347.008 310.848V245.952C347.008 245.632 347.104 245.376 347.296 245.184C347.552 244.928 347.84 244.8 348.16 244.8ZM344.32 384.112C344.32 379.184 345.216 374.608 347.008 370.384C348.864 366.096 351.328 362.416 354.4 359.344C357.536 356.208 361.216 353.776 365.44 352.048C369.664 350.256 374.208 349.392 379.072 349.456C383.936 349.52 388.48 350.48 392.704 352.336C396.928 354.192 400.576 356.72 403.648 359.92C406.784 363.12 409.248 366.864 411.04 371.152C412.832 375.376 413.696 379.888 413.632 384.688C413.568 389.552 412.608 394.096 410.752 398.32C408.896 402.544 406.368 406.224 403.168 409.36C400.032 412.496 396.352 414.96 392.128 416.752C387.904 418.48 383.36 419.344 378.496 419.344C373.696 419.344 369.184 418.448 364.96 416.656C360.8 414.8 357.184 412.304 354.112 409.168C351.04 405.968 348.64 402.224 346.912 397.936C345.184 393.648 344.32 389.04 344.32 384.112ZM356.608 384.592C356.608 387.728 357.216 390.704 358.432 393.52C359.648 396.336 361.28 398.8 363.328 400.912C365.376 403.024 367.744 404.688 370.432 405.904C373.12 407.12 376 407.728 379.072 407.728C382.08 407.664 384.928 406.992 387.616 405.712C390.304 404.432 392.64 402.736 394.624 400.624C396.672 398.448 398.272 395.952 399.424 393.136C400.576 390.256 401.12 387.248 401.056 384.112C401.056 380.976 400.448 378 399.232 375.184C398.016 372.368 396.384 369.936 394.336 367.888C392.288 365.776 389.888 364.112 387.136 362.896C384.448 361.68 381.6 361.072 378.592 361.072C375.584 361.136 372.736 361.808 370.048 363.088C367.36 364.304 365.024 366 363.04 368.176C361.056 370.288 359.488 372.752 358.336 375.568C357.184 378.384 356.608 381.392 356.608 384.592ZM347.008 457.76C347.008 457.44 347.104 457.184 347.296 456.992C347.552 456.736 347.84 456.608 348.16 456.608H398.848C399.168 456.608 399.424 456.736 399.616 456.992C399.872 457.184 400 457.44 400 457.76V471.872C400 472.768 399.712 473.568 399.136 474.272L383.968 494.144L405.664 522.464C405.856 522.784 405.856 523.104 405.664 523.424C405.536 523.68 405.312 523.808 404.992 523.808H392.8C391.52 523.808 390.464 523.296 389.632 522.272L368.608 494.912C368.16 494.4 368.16 493.92 368.608 493.472L387.52 468.8H359.296V522.656C359.296 523.424 358.88 523.808 358.048 523.808H348.16C347.84 523.808 347.552 523.712 347.296 523.52C347.104 523.264 347.008 522.976 347.008 522.656V457.76ZM347.008 628.848V563.952C347.008 563.632 347.104 563.376 347.296 563.184C347.552 562.928 347.84 562.8 348.16 562.8H357.28C358.56 562.8 359.616 563.312 360.448 564.336L409.888 628.656C410.08 628.976 410.08 629.296 409.888 629.616C409.76 629.872 409.504 630 409.12 630H396.928C395.648 630 394.592 629.488 393.76 628.464L377.152 606.768L360.448 628.464C359.616 629.488 358.56 630 357.28 630H348.16C347.84 630 347.552 629.904 347.296 629.712C347.104 629.456 347.008 629.168 347.008 628.848ZM359.296 583.536V609.264L369.184 596.4L359.296 583.536ZM347.008 734.848V669.952C347.008 669.632 347.104 669.376 347.296 669.184C347.552 668.928 347.84 668.8 348.16 668.8H357.28C358.56 668.8 359.616 669.312 360.448 670.336L395.008 715.264V669.952C395.008 669.184 395.392 668.8 396.16 668.8H406.048C406.816 668.8 407.2 669.184 407.2 669.952V734.848C407.2 735.616 406.816 736 406.048 736H396.928C395.648 736 394.592 735.488 393.76 734.464L359.296 689.536V734.848C359.296 735.616 358.88 736 358.048 736H348.16C347.84 736 347.552 735.904 347.296 735.712C347.104 735.456 347.008 735.168 347.008 734.848ZM343.648 775.76C343.648 775.44 343.744 775.184 343.936 774.992C344.192 774.736 344.48 774.608 344.8 774.608H386.464C387.744 774.608 388.8 775.12 389.632 776.144L396.736 785.456C396.992 785.776 397.024 786.096 396.832 786.416C396.704 786.672 396.448 786.8 396.064 786.8H374.656V840.656C374.656 841.424 374.272 841.808 373.504 841.808H363.616C362.848 841.808 362.464 841.424 362.464 840.656V786.8H344.8C344.48 786.8 344.192 786.704 343.936 786.512C343.744 786.256 343.648 785.968 343.648 785.648V775.76Z"/>
</mask>
<path d="M356.896 34.144L360.243 31.5697L360.208 31.5251L360.173 31.4815L356.896 34.144ZM391.456 79.072L388.109 81.6463L395.678 91.4858V79.072H391.456ZM391.744 32.992L394.73 35.9776L394.73 35.9776L391.744 32.992ZM403.264 32.992L399.886 35.5253L400.248 36.0079L400.731 36.3698L403.264 32.992ZM390.208 98.272L386.858 100.842L386.894 100.889L386.931 100.935L390.208 98.272ZM340.864 33.952L344.214 31.382L344.045 31.1623L343.85 30.9664L340.864 33.952ZM340.768 33.088L337.147 30.9157L340.768 33.088ZM341.536 36.8302H353.728V28.3858H341.536V36.8302ZM353.728 36.8302C353.765 36.8302 353.767 36.8338 353.742 36.8283C353.716 36.8226 353.678 36.8108 353.638 36.7912C353.598 36.7717 353.573 36.7535 353.565 36.7472C353.559 36.7419 353.578 36.7565 353.619 36.8065L360.173 31.4815C358.568 29.5059 356.324 28.3858 353.728 28.3858V36.8302ZM353.549 36.7183L388.109 81.6463L394.803 76.4977L360.243 31.5697L353.549 36.7183ZM395.678 79.072V33.76H387.234V79.072H395.678ZM395.678 33.76C395.678 34.0216 395.639 34.3912 395.481 34.8105C395.319 35.2429 395.063 35.6444 394.73 35.9776L388.758 30.0064C387.634 31.1304 387.234 32.5354 387.234 33.76H395.678ZM394.73 35.9776C394.545 36.1622 394.261 36.387 393.867 36.5623C393.462 36.742 393.029 36.8302 392.608 36.8302V28.3858C391.017 28.3858 389.693 29.072 388.758 30.0064L394.73 35.9776ZM392.608 36.8302H402.496V28.3858H392.608V36.8302ZM402.496 36.8302C402.079 36.8302 401.564 36.7427 401.04 36.4805C400.515 36.2183 400.137 35.8592 399.886 35.5253L406.642 30.4587C405.652 29.1395 404.145 28.3858 402.496 28.3858V36.8302ZM400.731 36.3698C400.397 36.1194 400.038 35.7407 399.776 35.2162C399.513 34.6918 399.426 34.1773 399.426 33.76H407.87C407.87 32.111 407.117 30.6036 405.797 29.6142L400.731 36.3698ZM399.426 33.76V98.656H407.87V33.76H399.426ZM399.426 98.656C399.426 98.3892 399.495 97.4135 400.374 96.5344C401.254 95.6553 402.229 95.5858 402.496 95.5858V104.03C403.531 104.03 405.082 103.769 406.346 102.506C407.609 101.242 407.87 99.6908 407.87 98.656H399.426ZM402.496 95.5858H393.376V104.03H402.496V95.5858ZM393.376 95.5858C393.339 95.5858 393.337 95.5822 393.362 95.5877C393.388 95.5934 393.426 95.6052 393.466 95.6248C393.506 95.6443 393.531 95.6625 393.539 95.6688C393.545 95.6741 393.526 95.6595 393.485 95.6095L386.931 100.935C388.536 102.91 390.78 104.03 393.376 104.03V95.5858ZM393.558 95.702L344.214 31.382L337.514 36.522L386.858 100.842L393.558 95.702ZM343.85 30.9664C344.226 31.3433 344.73 32.0512 344.844 33.0777C344.957 34.0874 344.63 34.8573 344.389 35.2603L337.147 30.9157C336.714 31.6387 336.307 32.7126 336.452 34.0103C336.598 35.3248 337.246 36.3046 337.878 36.9376L343.85 30.9664ZM344.389 35.2603C344.221 35.5397 343.897 35.9611 343.342 36.3084C342.758 36.6734 342.118 36.8302 341.536 36.8302V28.3858C339.463 28.3858 337.953 29.5739 337.147 30.9157L344.389 35.2603ZM347.296 139.184L344.31 136.198L344.31 136.198L347.296 139.184ZM360.448 140.336L363.796 137.763L363.761 137.718L363.725 137.674L360.448 140.336ZM409.888 204.656L413.509 202.484L413.384 202.275L413.236 202.083L409.888 204.656ZM409.888 205.616L406.267 203.444L406.184 203.583L406.112 203.728L409.888 205.616ZM393.76 204.464L390.407 207.03L390.444 207.079L390.483 207.127L393.76 204.464ZM377.152 182.768L380.505 180.202L377.162 175.834L373.806 180.192L377.152 182.768ZM360.448 204.464L363.725 207.127L363.76 207.084L363.794 207.04L360.448 204.464ZM347.296 205.712L343.918 208.245L344.28 208.728L344.763 209.09L347.296 205.712ZM359.296 159.536L362.644 156.963L355.074 147.115V159.536H359.296ZM359.296 185.264H355.074V197.685L362.644 187.837L359.296 185.264ZM369.184 172.4L372.532 174.973L374.509 172.4L372.532 169.827L369.184 172.4ZM351.23 204.848V139.952H342.786V204.848H351.23ZM351.23 139.952C351.23 140.214 351.191 140.583 351.033 141.003C350.871 141.435 350.615 141.836 350.282 142.17L344.31 136.198C343.186 137.322 342.786 138.727 342.786 139.952H351.23ZM350.282 142.17C350.097 142.354 349.813 142.579 349.419 142.754C349.014 142.934 348.581 143.022 348.16 143.022V134.578C346.569 134.578 345.245 135.264 344.31 136.198L350.282 142.17ZM348.16 143.022H357.28V134.578H348.16V143.022ZM357.28 143.022C357.317 143.022 357.319 143.026 357.294 143.02C357.268 143.015 357.23 143.003 357.19 142.983C357.15 142.964 357.125 142.945 357.117 142.939C357.111 142.934 357.13 142.949 357.171 142.998L363.725 137.674C362.12 135.698 359.876 134.578 357.28 134.578V143.022ZM357.1 142.909L406.54 207.229L413.236 202.083L363.796 137.763L357.1 142.909ZM406.267 206.828C406.036 206.443 405.81 205.861 405.81 205.136C405.81 204.411 406.036 203.829 406.267 203.444L413.509 207.788C413.932 207.083 414.254 206.181 414.254 205.136C414.254 204.091 413.932 203.189 413.509 202.484L406.267 206.828ZM406.112 203.728C406.456 203.039 407.023 202.472 407.712 202.128C408.335 201.816 408.87 201.778 409.12 201.778V210.222C410.466 210.222 412.575 209.684 413.664 207.504L406.112 203.728ZM409.12 201.778H396.928V210.222H409.12V201.778ZM396.928 201.778C396.891 201.778 396.889 201.774 396.914 201.78C396.94 201.785 396.978 201.797 397.018 201.817C397.058 201.836 397.083 201.855 397.091 201.861C397.097 201.866 397.078 201.851 397.037 201.801L390.483 207.127C392.088 209.102 394.332 210.222 396.928 210.222V201.778ZM397.113 201.898L380.505 180.202L373.799 185.334L390.407 207.03L397.113 201.898ZM373.806 180.192L357.102 201.888L363.794 207.04L380.498 185.344L373.806 180.192ZM357.171 201.801C357.13 201.851 357.111 201.866 357.117 201.861C357.125 201.855 357.15 201.836 357.19 201.817C357.23 201.797 357.268 201.785 357.294 201.78C357.319 201.774 357.317 201.778 357.28 201.778V210.222C359.876 210.222 362.12 209.102 363.725 207.127L357.171 201.801ZM357.28 201.778H348.16V210.222H357.28V201.778ZM348.16 201.778C348.429 201.778 348.73 201.819 349.039 201.922C349.349 202.026 349.614 202.173 349.829 202.334L344.763 209.09C345.75 209.83 346.926 210.222 348.16 210.222V201.778ZM350.674 203.179C350.835 203.394 350.982 203.659 351.086 203.969C351.189 204.278 351.23 204.579 351.23 204.848H342.786C342.786 206.082 343.178 207.258 343.918 208.245L350.674 203.179ZM355.074 159.536V185.264H363.518V159.536H355.074ZM362.644 187.837L372.532 174.973L365.836 169.827L355.948 182.691L362.644 187.837ZM372.532 169.827L362.644 156.963L355.948 162.109L365.836 174.973L372.532 169.827ZM359.296 299.808H355.074V304.03H359.296V299.808ZM386.944 300.288L383.024 301.856L383.149 302.17L383.323 302.46L386.944 300.288ZM386.944 301.152L390.284 303.735L390.303 303.71L390.322 303.685L386.944 301.152ZM379.744 310.464L383.021 313.126L383.053 313.087L383.084 313.047L379.744 310.464ZM347.296 311.712L343.918 314.245L344.28 314.728L344.763 315.09L347.296 311.712ZM347.296 245.184L344.31 242.198H344.31L347.296 245.184ZM348.16 249.022H358.048V240.578H348.16V249.022ZM358.048 249.022C357.893 249.022 356.99 248.994 356.12 248.19C355.186 247.328 355.074 246.309 355.074 245.952H363.518C363.518 244.827 363.198 243.232 361.848 241.985C360.562 240.798 359.035 240.578 358.048 240.578V249.022ZM355.074 245.952V299.808H363.518V245.952H355.074ZM359.296 304.03H386.176V295.586H359.296V304.03ZM386.176 304.03C385.79 304.03 385.121 303.948 384.418 303.508C383.681 303.048 383.244 302.406 383.024 301.856L390.864 298.72C390.516 297.85 389.887 296.968 388.894 296.348C387.935 295.748 386.946 295.586 386.176 295.586V304.03ZM383.323 302.46C383.14 302.154 382.866 301.56 382.866 300.744C382.866 299.873 383.178 299.136 383.566 298.619L390.322 303.685C390.902 302.912 391.31 301.903 391.31 300.744C391.31 299.64 390.94 298.742 390.565 298.116L383.323 302.46ZM383.604 298.569L376.404 307.881L383.084 313.047L390.284 303.735L383.604 298.569ZM376.467 307.801C376.418 307.862 376.391 307.884 376.392 307.883C376.394 307.881 376.418 307.862 376.464 307.84C376.51 307.816 376.56 307.799 376.607 307.788C376.653 307.777 376.678 307.778 376.672 307.778V316.222C379.278 316.222 381.465 315.041 383.021 313.126L376.467 307.801ZM376.672 307.778H348.16V316.222H376.672V307.778ZM348.16 307.778C348.429 307.778 348.73 307.819 349.039 307.922C349.349 308.026 349.614 308.173 349.829 308.334L344.763 315.09C345.75 315.83 346.926 316.222 348.16 316.222V307.778ZM350.674 309.179C350.835 309.394 350.982 309.659 351.086 309.969C351.189 310.278 351.23 310.579 351.23 310.848H342.786C342.786 312.082 343.178 313.258 343.918 314.245L350.674 309.179ZM351.23 310.848V245.952H342.786V310.848H351.23ZM351.23 245.952C351.23 246.214 351.191 246.583 351.033 247.003C350.871 247.435 350.615 247.836 350.282 248.17L344.31 242.198C343.186 243.322 342.786 244.727 342.786 245.952H351.23ZM350.282 248.17C350.097 248.354 349.813 248.579 349.419 248.754C349.014 248.934 348.581 249.022 348.16 249.022V240.578C346.569 240.578 345.245 241.264 344.31 242.198L350.282 248.17ZM347.008 370.384L343.133 368.707L343.127 368.721L343.121 368.735L347.008 370.384ZM354.4 359.344L357.386 362.33H357.386L354.4 359.344ZM365.44 352.048L367.039 355.956L367.064 355.946L367.089 355.935L365.44 352.048ZM379.072 349.456L379.016 353.678L379.072 349.456ZM392.704 352.336L391.006 356.202L392.704 352.336ZM403.648 359.92L400.602 362.844L400.617 362.86L400.632 362.875L403.648 359.92ZM411.04 371.152L407.144 372.78L407.149 372.791L407.153 372.801L411.04 371.152ZM413.632 384.688L409.41 384.632L409.41 384.632L413.632 384.688ZM410.752 398.32L414.618 400.018L410.752 398.32ZM403.168 409.36L400.213 406.344L400.198 406.359L400.182 406.374L403.168 409.36ZM392.128 416.752L393.727 420.66L393.752 420.65L393.777 420.639L392.128 416.752ZM364.96 416.656L363.24 420.512L363.275 420.528L363.311 420.543L364.96 416.656ZM354.112 409.168L351.066 412.092L351.081 412.107L351.096 412.123L354.112 409.168ZM346.912 397.936L342.996 399.514H342.996L346.912 397.936ZM358.432 393.52L354.556 395.194L358.432 393.52ZM363.328 400.912L366.359 397.973L363.328 400.912ZM370.432 405.904L368.692 409.751L368.692 409.751L370.432 405.904ZM379.072 407.728V411.95H379.117L379.162 411.949L379.072 407.728ZM387.616 405.712L385.801 401.9L387.616 405.712ZM394.624 400.624L391.549 397.73L391.547 397.733L394.624 400.624ZM399.424 393.136L403.332 394.735L403.338 394.719L403.344 394.704L399.424 393.136ZM401.056 384.112H396.834V384.155L396.835 384.198L401.056 384.112ZM394.336 367.888L391.305 370.827L391.327 370.851L391.35 370.874L394.336 367.888ZM387.136 362.896L385.396 366.743L385.413 366.751L385.43 366.758L387.136 362.896ZM378.592 361.072V356.85H378.547L378.502 356.851L378.592 361.072ZM370.048 363.088L371.788 366.935L371.826 366.918L371.863 366.9L370.048 363.088ZM363.04 368.176L366.117 371.067L366.139 371.044L366.16 371.021L363.04 368.176ZM358.336 375.568L362.244 377.167L358.336 375.568ZM348.542 384.112C348.542 379.708 349.34 375.698 350.895 372.033L343.121 368.735C341.092 373.518 340.098 378.66 340.098 384.112H348.542ZM350.883 372.061C352.544 368.224 354.717 364.998 357.386 362.33L351.414 356.358C347.939 359.834 345.184 363.968 343.133 368.707L350.883 372.061ZM357.386 362.33C360.113 359.602 363.318 357.478 367.039 355.956L363.841 348.14C359.114 350.074 354.959 352.814 351.414 356.358L357.386 362.33ZM367.089 355.935C370.742 354.385 374.702 353.621 379.016 353.678L379.128 345.234C373.714 345.163 368.586 346.127 363.791 348.161L367.089 355.935ZM379.016 353.678C383.346 353.735 387.328 354.585 391.006 356.202L394.402 348.47C389.632 346.375 384.526 345.305 379.128 345.234L379.016 353.678ZM391.006 356.202C394.744 357.844 397.929 360.059 400.602 362.844L406.694 356.996C403.223 353.381 399.112 350.54 394.402 348.47L391.006 356.202ZM400.632 362.875C403.38 365.678 405.551 368.968 407.144 372.78L414.936 369.524C412.945 364.76 410.188 360.562 406.664 356.965L400.632 362.875ZM407.153 372.801C408.706 376.461 409.467 380.39 409.41 384.632L417.854 384.744C417.925 379.386 416.958 374.291 414.927 369.503L407.153 372.801ZM409.41 384.632C409.353 388.962 408.503 392.944 406.886 396.622L414.618 400.018C416.713 395.248 417.783 390.142 417.854 384.744L409.41 384.632ZM406.886 396.622C405.241 400.367 403.017 403.597 400.213 406.344L406.123 412.376C409.719 408.851 412.551 404.721 414.618 400.018L406.886 396.622ZM400.182 406.374C397.443 409.114 394.221 411.277 390.479 412.865L393.777 420.639C398.483 418.643 402.621 415.878 406.154 412.346L400.182 406.374ZM390.529 412.844C386.845 414.351 382.848 415.122 378.496 415.122V423.566C383.872 423.566 388.963 422.609 393.727 420.66L390.529 412.844ZM378.496 415.122C374.236 415.122 370.287 414.33 366.609 412.769L363.311 420.543C368.081 422.566 373.156 423.566 378.496 423.566V415.122ZM366.68 412.8C362.987 411.152 359.815 408.956 357.128 406.213L351.096 412.123C354.553 415.652 358.613 418.448 363.24 420.512L366.68 412.8ZM357.158 406.244C354.475 403.449 352.363 400.167 350.828 396.358L342.996 399.514C344.917 404.281 347.605 408.487 351.066 412.092L357.158 406.244ZM350.828 396.358C349.315 392.604 348.542 388.535 348.542 384.112H340.098C340.098 389.545 341.053 394.692 342.996 399.514L350.828 396.358ZM352.386 384.592C352.386 388.29 353.106 391.837 354.556 395.194L362.308 391.846C361.326 389.571 360.83 387.166 360.83 384.592H352.386ZM354.556 395.194C355.966 398.459 357.878 401.357 360.297 403.851L366.359 397.973C364.682 396.243 363.33 394.213 362.308 391.846L354.556 395.194ZM360.297 403.851C362.715 406.345 365.522 408.317 368.692 409.751L372.172 402.057C369.966 401.059 368.037 399.703 366.359 397.973L360.297 403.851ZM368.692 409.751C371.949 411.225 375.425 411.95 379.072 411.95V403.506C376.575 403.506 374.291 403.015 372.172 402.057L368.692 409.751ZM379.162 411.949C382.761 411.873 386.198 411.064 389.431 409.524L385.801 401.9C383.658 402.92 381.399 403.455 378.982 403.507L379.162 411.949ZM389.431 409.524C392.58 408.025 395.348 406.02 397.701 403.515L391.547 397.733C389.932 399.452 388.028 400.839 385.801 401.9L389.431 409.524ZM397.699 403.518C400.108 400.958 401.987 398.021 403.332 394.735L395.516 391.537C394.557 393.883 393.236 395.938 391.549 397.73L397.699 403.518ZM403.344 394.704C404.709 391.292 405.353 387.721 405.277 384.026L396.835 384.198C396.887 386.775 396.443 389.22 395.504 391.568L403.344 394.704ZM405.278 384.112C405.278 380.414 404.558 376.867 403.108 373.51L395.356 376.858C396.338 379.133 396.834 381.538 396.834 384.112H405.278ZM403.108 373.51C401.694 370.234 399.769 367.349 397.322 364.902L391.35 370.874C392.999 372.523 394.339 374.502 395.356 376.858L403.108 373.51ZM397.367 364.949C394.932 362.438 392.08 360.464 388.842 359.034L385.43 366.758C387.696 367.76 389.644 369.114 391.305 370.827L397.367 364.949ZM388.876 359.049C385.631 357.581 382.188 356.85 378.592 356.85V365.294C381.012 365.294 383.265 365.779 385.396 366.743L388.876 359.049ZM378.502 356.851C374.903 356.927 371.466 357.736 368.233 359.276L371.863 366.9C374.006 365.88 376.265 365.345 378.682 365.293L378.502 356.851ZM368.308 359.241C365.097 360.693 362.292 362.73 359.92 365.331L366.16 371.021C367.756 369.27 369.623 367.915 371.788 366.935L368.308 359.241ZM359.963 365.285C357.608 367.792 355.766 370.7 354.428 373.969L362.244 377.167C363.21 374.804 364.504 372.784 366.117 371.067L359.963 365.285ZM354.428 373.969C353.058 377.319 352.386 380.873 352.386 384.592H360.83C360.83 381.911 361.31 379.449 362.244 377.167L354.428 373.969ZM347.296 456.992L350.282 459.978H350.282L347.296 456.992ZM399.616 456.992L396.238 459.525L396.6 460.008L397.083 460.37L399.616 456.992ZM399.136 474.272L395.868 471.598L395.823 471.654L395.78 471.71L399.136 474.272ZM383.968 494.144L380.612 491.582L378.653 494.149L380.616 496.712L383.968 494.144ZM405.664 522.464L409.285 520.292L409.161 520.086L409.016 519.896L405.664 522.464ZM405.664 523.424L402.043 521.252L401.96 521.391L401.888 521.536L405.664 523.424ZM389.632 522.272L386.284 524.845L386.319 524.89L386.355 524.935L389.632 522.272ZM368.608 494.912L371.956 492.339L371.874 492.233L371.786 492.132L368.608 494.912ZM368.608 493.472L371.594 496.458L371.79 496.261L371.959 496.041L368.608 493.472ZM387.52 468.8L390.871 471.369L396.076 464.578H387.52V468.8ZM359.296 468.8V464.578H355.074V468.8H359.296ZM347.296 523.52L343.918 526.053L344.28 526.536L344.763 526.898L347.296 523.52ZM351.23 457.76C351.23 458.022 351.191 458.391 351.033 458.811C350.871 459.243 350.615 459.644 350.282 459.978L344.31 454.006C343.186 455.13 342.786 456.535 342.786 457.76H351.23ZM350.282 459.978C350.097 460.162 349.813 460.387 349.419 460.562C349.014 460.742 348.581 460.83 348.16 460.83V452.386C346.569 452.386 345.245 453.072 344.31 454.006L350.282 459.978ZM348.16 460.83H398.848V452.386H348.16V460.83ZM398.848 460.83C398.431 460.83 397.916 460.743 397.392 460.48C396.867 460.218 396.489 459.859 396.238 459.525L402.994 454.459C402.004 453.139 400.497 452.386 398.848 452.386V460.83ZM397.083 460.37C396.749 460.119 396.39 459.741 396.128 459.216C395.865 458.692 395.778 458.177 395.778 457.76H404.222C404.222 456.111 403.469 454.604 402.149 453.614L397.083 460.37ZM395.778 457.76V471.872H404.222V457.76H395.778ZM395.778 471.872C395.778 471.859 395.781 471.797 395.811 471.714C395.841 471.632 395.874 471.592 395.868 471.598L402.404 476.946C403.587 475.5 404.222 473.759 404.222 471.872H395.778ZM395.78 471.71L380.612 491.582L387.324 496.706L402.492 476.834L395.78 471.71ZM380.616 496.712L402.312 525.032L409.016 519.896L387.32 491.576L380.616 496.712ZM402.043 524.636C401.812 524.251 401.586 523.669 401.586 522.944C401.586 522.219 401.812 521.637 402.043 521.252L409.285 525.596C409.708 524.891 410.03 523.989 410.03 522.944C410.03 521.899 409.708 520.997 409.285 520.292L402.043 524.636ZM401.888 521.536C402.154 521.003 402.615 520.44 403.305 520.046C403.967 519.668 404.592 519.586 404.992 519.586V528.03C405.712 528.03 406.609 527.884 407.495 527.378C408.409 526.856 409.046 526.101 409.44 525.312L401.888 521.536ZM404.992 519.586H392.8V528.03H404.992V519.586ZM392.8 519.586C392.763 519.586 392.761 519.582 392.786 519.588C392.812 519.593 392.85 519.605 392.89 519.625C392.93 519.644 392.955 519.663 392.963 519.669C392.969 519.674 392.95 519.659 392.909 519.609L386.355 524.935C387.96 526.91 390.204 528.03 392.8 528.03V519.586ZM392.98 519.699L371.956 492.339L365.26 497.485L386.284 524.845L392.98 519.699ZM371.786 492.132C371.957 492.327 372.494 493.03 372.494 494.168C372.494 495.371 371.899 496.152 371.594 496.458L365.622 490.486C364.869 491.24 364.05 492.485 364.05 494.168C364.05 495.786 364.811 496.985 365.43 497.692L371.786 492.132ZM371.959 496.041L390.871 471.369L384.169 466.231L365.257 490.903L371.959 496.041ZM387.52 464.578H359.296V473.022H387.52V464.578ZM355.074 468.8V522.656H363.518V468.8H355.074ZM355.074 522.656C355.074 522.299 355.186 521.28 356.12 520.418C356.99 519.614 357.893 519.586 358.048 519.586V528.03C359.035 528.03 360.562 527.81 361.848 526.622C363.198 525.376 363.518 523.781 363.518 522.656H355.074ZM358.048 519.586H348.16V528.03H358.048V519.586ZM348.16 519.586C348.429 519.586 348.73 519.627 349.039 519.73C349.349 519.834 349.614 519.981 349.829 520.142L344.763 526.898C345.75 527.638 346.926 528.03 348.16 528.03V519.586ZM350.674 520.987C350.835 521.202 350.982 521.467 351.086 521.777C351.189 522.086 351.23 522.387 351.23 522.656H342.786C342.786 523.89 343.178 525.066 343.918 526.053L350.674 520.987ZM351.23 522.656V457.76H342.786V522.656H351.23ZM347.296 563.184L344.31 560.198H344.31L347.296 563.184ZM360.448 564.336L363.796 561.763L363.761 561.718L363.725 561.674L360.448 564.336ZM409.888 628.656L413.509 626.484L413.384 626.275L413.236 626.083L409.888 628.656ZM409.888 629.616L406.267 627.444L406.184 627.583L406.112 627.728L409.888 629.616ZM393.76 628.464L390.407 631.03L390.444 631.079L390.483 631.127L393.76 628.464ZM377.152 606.768L380.505 604.202L377.162 599.834L373.806 604.192L377.152 606.768ZM360.448 628.464L363.725 631.127L363.76 631.084L363.794 631.04L360.448 628.464ZM347.296 629.712L343.918 632.245L344.28 632.728L344.763 633.09L347.296 629.712ZM359.296 583.536L362.644 580.963L355.074 571.115V583.536H359.296ZM359.296 609.264H355.074V621.685L362.644 611.837L359.296 609.264ZM369.184 596.4L372.532 598.973L374.509 596.4L372.532 593.827L369.184 596.4ZM351.23 628.848V563.952H342.786V628.848H351.23ZM351.23 563.952C351.23 564.214 351.191 564.583 351.033 565.003C350.871 565.435 350.615 565.836 350.282 566.17L344.31 560.198C343.186 561.322 342.786 562.727 342.786 563.952H351.23ZM350.282 566.17C350.097 566.354 349.813 566.579 349.419 566.754C349.014 566.934 348.581 567.022 348.16 567.022V558.578C346.569 558.578 345.245 559.264 344.31 560.198L350.282 566.17ZM348.16 567.022H357.28V558.578H348.16V567.022ZM357.28 567.022C357.317 567.022 357.319 567.026 357.294 567.02C357.268 567.015 357.23 567.003 357.19 566.983C357.15 566.964 357.125 566.945 357.117 566.939C357.111 566.934 357.13 566.949 357.171 566.998L363.725 561.674C362.12 559.698 359.876 558.578 357.28 558.578V567.022ZM357.1 566.909L406.54 631.229L413.236 626.083L363.796 561.763L357.1 566.909ZM406.267 630.828C406.036 630.443 405.81 629.861 405.81 629.136C405.81 628.411 406.036 627.829 406.267 627.444L413.509 631.788C413.932 631.083 414.254 630.181 414.254 629.136C414.254 628.091 413.932 627.189 413.509 626.484L406.267 630.828ZM406.112 627.728C406.456 627.039 407.023 626.472 407.712 626.128C408.335 625.816 408.87 625.778 409.12 625.778V634.222C410.466 634.222 412.575 633.684 413.664 631.504L406.112 627.728ZM409.12 625.778H396.928V634.222H409.12V625.778ZM396.928 625.778C396.891 625.778 396.889 625.774 396.914 625.78C396.94 625.785 396.978 625.797 397.018 625.817C397.058 625.836 397.083 625.855 397.091 625.861C397.097 625.866 397.078 625.851 397.037 625.802L390.483 631.127C392.088 633.102 394.332 634.222 396.928 634.222V625.778ZM397.113 625.898L380.505 604.202L373.799 609.334L390.407 631.03L397.113 625.898ZM373.806 604.192L357.102 625.888L363.794 631.04L380.498 609.344L373.806 604.192ZM357.171 625.802C357.13 625.851 357.111 625.866 357.117 625.861C357.125 625.855 357.15 625.836 357.19 625.817C357.23 625.797 357.268 625.785 357.294 625.78C357.319 625.774 357.317 625.778 357.28 625.778V634.222C359.876 634.222 362.12 633.102 363.725 631.127L357.171 625.802ZM357.28 625.778H348.16V634.222H357.28V625.778ZM348.16 625.778C348.429 625.778 348.73 625.819 349.039 625.922C349.349 626.026 349.614 626.173 349.829 626.334L344.763 633.09C345.75 633.83 346.926 634.222 348.16 634.222V625.778ZM350.674 627.179C350.835 627.394 350.982 627.659 351.086 627.969C351.189 628.278 351.23 628.579 351.23 628.848H342.786C342.786 630.082 343.178 631.258 343.918 632.245L350.674 627.179ZM355.074 583.536V609.264H363.518V583.536H355.074ZM362.644 611.837L372.532 598.973L365.836 593.827L355.948 606.691L362.644 611.837ZM372.532 593.827L362.644 580.963L355.948 586.109L365.836 598.973L372.532 593.827ZM347.296 669.184L344.31 666.198H344.31L347.296 669.184ZM360.448 670.336L363.795 667.762L363.76 667.717L363.725 667.674L360.448 670.336ZM395.008 715.264L391.661 717.838L399.23 727.678V715.264H395.008ZM393.76 734.464L390.41 737.034L390.446 737.081L390.483 737.127L393.76 734.464ZM359.296 689.536L362.646 686.966L355.074 677.095V689.536H359.296ZM347.296 735.712L343.918 738.245L344.28 738.728L344.763 739.09L347.296 735.712ZM351.23 734.848V669.952H342.786V734.848H351.23ZM351.23 669.952C351.23 670.214 351.191 670.583 351.033 671.003C350.871 671.435 350.615 671.836 350.282 672.17L344.31 666.198C343.186 667.322 342.786 668.727 342.786 669.952H351.23ZM350.282 672.17C350.097 672.354 349.813 672.579 349.419 672.754C349.014 672.934 348.581 673.022 348.16 673.022V664.578C346.569 664.578 345.245 665.264 344.31 666.198L350.282 672.17ZM348.16 673.022H357.28V664.578H348.16V673.022ZM357.28 673.022C357.317 673.022 357.319 673.026 357.294 673.02C357.268 673.015 357.23 673.003 357.19 672.983C357.15 672.964 357.125 672.945 357.117 672.939C357.111 672.934 357.13 672.949 357.171 672.998L363.725 667.674C362.12 665.698 359.876 664.578 357.28 664.578V673.022ZM357.101 672.91L391.661 717.838L398.355 712.69L363.795 667.762L357.101 672.91ZM399.23 715.264V669.952H390.786V715.264H399.23ZM399.23 669.952C399.23 670.219 399.161 671.194 398.282 672.074C397.402 672.953 396.427 673.022 396.16 673.022V664.578C395.125 664.578 393.574 664.839 392.31 666.102C391.047 667.366 390.786 668.917 390.786 669.952H399.23ZM396.16 673.022H406.048V664.578H396.16V673.022ZM406.048 673.022C405.781 673.022 404.806 672.953 403.926 672.074C403.047 671.194 402.978 670.219 402.978 669.952H411.422C411.422 668.917 411.161 667.366 409.898 666.102C408.634 664.839 407.083 664.578 406.048 664.578V673.022ZM402.978 669.952V734.848H411.422V669.952H402.978ZM402.978 734.848C402.978 734.581 403.047 733.606 403.926 732.726C404.806 731.847 405.781 731.778 406.048 731.778V740.222C407.083 740.222 408.634 739.961 409.898 738.698C411.161 737.434 411.422 735.883 411.422 734.848H402.978ZM406.048 731.778H396.928V740.222H406.048V731.778ZM396.928 731.778C396.891 731.778 396.889 731.774 396.914 731.78C396.94 731.785 396.978 731.797 397.018 731.817C397.058 731.836 397.083 731.855 397.091 731.861C397.097 731.866 397.078 731.851 397.037 731.802L390.483 737.127C392.088 739.102 394.332 740.222 396.928 740.222V731.778ZM397.11 731.894L362.646 686.966L355.946 692.106L390.41 737.034L397.11 731.894ZM355.074 689.536V734.848H363.518V689.536H355.074ZM355.074 734.848C355.074 734.491 355.186 733.471 356.12 732.609C356.99 731.806 357.893 731.778 358.048 731.778V740.222C359.035 740.222 360.562 740.002 361.848 738.815C363.198 737.568 363.518 735.974 363.518 734.848H355.074ZM358.048 731.778H348.16V740.222H358.048V731.778ZM348.16 731.778C348.429 731.778 348.73 731.819 349.039 731.922C349.349 732.026 349.614 732.173 349.829 732.334L344.763 739.09C345.75 739.83 346.926 740.222 348.16 740.222V731.778ZM350.674 733.179C350.835 733.394 350.982 733.659 351.086 733.969C351.189 734.278 351.23 734.579 351.23 734.848H342.786C342.786 736.082 343.178 737.258 343.918 738.245L350.674 733.179ZM343.936 774.992L346.922 777.978L346.922 777.978L343.936 774.992ZM389.632 776.144L392.989 773.583L392.95 773.532L392.909 773.482L389.632 776.144ZM396.736 785.456L393.379 788.017L393.409 788.056L393.439 788.094L396.736 785.456ZM396.832 786.416L393.211 784.244L393.128 784.383L393.056 784.528L396.832 786.416ZM374.656 786.8V782.578H370.434V786.8H374.656ZM362.464 786.8H366.686V782.578H362.464V786.8ZM343.936 786.512L340.558 789.045L340.92 789.528L341.403 789.89L343.936 786.512ZM347.87 775.76C347.87 776.022 347.831 776.391 347.673 776.811C347.511 777.243 347.255 777.644 346.922 777.978L340.95 772.006C339.826 773.13 339.426 774.535 339.426 775.76H347.87ZM346.922 777.978C346.737 778.162 346.453 778.387 346.059 778.562C345.654 778.742 345.221 778.83 344.8 778.83V770.386C343.209 770.386 341.885 771.072 340.95 772.006L346.922 777.978ZM344.8 778.83H386.464V770.386H344.8V778.83ZM386.464 778.83C386.501 778.83 386.503 778.834 386.478 778.828C386.452 778.823 386.414 778.811 386.374 778.791C386.334 778.772 386.309 778.753 386.301 778.747C386.295 778.742 386.314 778.757 386.355 778.807L392.909 773.482C391.304 771.506 389.06 770.386 386.464 770.386V778.83ZM386.275 778.705L393.379 788.017L400.093 782.895L392.989 773.583L386.275 778.705ZM393.439 788.094C393.196 787.79 392.835 787.203 392.751 786.356C392.662 785.472 392.918 784.733 393.211 784.244L400.453 788.588C400.938 787.779 401.274 786.72 401.153 785.516C401.037 784.349 400.532 783.442 400.033 782.818L393.439 788.094ZM393.056 784.528C393.4 783.839 393.967 783.272 394.656 782.928C395.279 782.616 395.814 782.578 396.064 782.578V791.022C397.41 791.022 399.519 790.484 400.608 788.304L393.056 784.528ZM396.064 782.578H374.656V791.022H396.064V782.578ZM370.434 786.8V840.656H378.878V786.8H370.434ZM370.434 840.656C370.434 840.389 370.503 839.414 371.382 838.534C372.262 837.655 373.237 837.586 373.504 837.586V846.03C374.539 846.03 376.09 845.769 377.354 844.506C378.617 843.242 378.878 841.691 378.878 840.656H370.434ZM373.504 837.586H363.616V846.03H373.504V837.586ZM363.616 837.586C363.883 837.586 364.858 837.655 365.738 838.534C366.617 839.414 366.686 840.389 366.686 840.656H358.242C358.242 841.691 358.503 843.242 359.766 844.506C361.03 845.769 362.581 846.03 363.616 846.03V837.586ZM366.686 840.656V786.8H358.242V840.656H366.686ZM362.464 782.578H344.8V791.022H362.464V782.578ZM344.8 782.578C345.069 782.578 345.37 782.619 345.679 782.722C345.989 782.826 346.254 782.973 346.469 783.134L341.403 789.89C342.39 790.63 343.566 791.022 344.8 791.022V782.578ZM347.314 783.979C347.475 784.194 347.622 784.459 347.726 784.769C347.829 785.078 347.87 785.379 347.87 785.648H339.426C339.426 786.882 339.818 788.058 340.558 789.045L347.314 783.979ZM347.87 785.648V775.76H339.426V785.648H347.87Z" fill="#2B2B2B" fill-opacity="0.05" mask="url(#path-1-outside-1_140_197)"/>
<path d="M69 795.211V709L215.667 891H142.333L69 795.211Z" stroke="black" stroke-opacity="0.05" stroke-width="4.22"/>
<path d="M289 709L193.348 827.14H266.681L289 795.211V709Z" stroke="black" stroke-opacity="0.05" stroke-width="4.22"/>
<rect width="24" height="24" transform="translate(15 271)" fill="white"/>
<path d="M18.064 282.489V275.596L29.8086 290.149H23.9363L18.064 282.489Z" fill="#1E1E1E"/>
<path d="M35.681 275.596L28.0214 285.043H33.8938L35.681 282.489V275.596Z" fill="#1E1E1E"/>
<line x1="21" y1="118" x2="31" y2="118" stroke="#2B2B2B" stroke-width="2"/>
<rect x="322" y="225" width="10" height="10" fill="#2B2B2B"/>
<line x1="69" y1="234.5" x2="425" y2="234.5" stroke="#2B2B2B"/>
<line x1="21" y1="348" x2="31" y2="348" stroke="#2B2B2B" stroke-width="2"/>
<rect x="21" y="419" width="10" height="10" fill="#2B2B2B"/>
<rect x="21" y="435" width="3" height="3" fill="#2B2B2B"/>
<rect x="21" y="445" width="3" height="3" fill="#2B2B2B"/>
<rect x="24" y="494" width="3" height="3" fill="#2B2B2B"/>
<line x1="24" y1="677" x2="34" y2="677" stroke="#2B2B2B" stroke-width="2"/>
</g>
<defs>
<clipPath id="clip0_140_197">
<rect width="425" height="841" fill="white"/>
</clipPath>
</defs>
</svg>
