<svg width="425" height="841" viewBox="0 0 425 841" fill="none" xmlns="http://www.w3.org/2000/svg">
<g clip-path="url(#clip0_140_194)">
<rect width="425" height="841" fill="#EB565B"/>
<path d="M69 795.211V709L215.667 891H142.333L69 795.211Z" stroke="black" stroke-opacity="0.05" stroke-width="4.22"/>
<path d="M289 709L193.348 827.14H266.681L289 795.211V709Z" stroke="black" stroke-opacity="0.05" stroke-width="4.22"/>
<rect width="24" height="24" transform="translate(15 271)" fill="white"/>
<path d="M18.064 282.489V275.596L29.8086 290.149H23.9363L18.064 282.489Z" fill="#1E1E1E"/>
<path d="M35.681 275.596L28.0214 285.043H33.8938L35.681 282.489V275.596Z" fill="#1E1E1E"/>
<line x1="331.5" y1="847" x2="331.5" y2="2.18557e-08" stroke="#2B2B2B"/>
<line x1="368" y1="105" x2="378" y2="105" stroke="#2B2B2B" stroke-width="2"/>
<line x1="21" y1="118" x2="31" y2="118" stroke="#2B2B2B" stroke-width="2"/>
<rect x="322" y="225" width="10" height="10" fill="#2B2B2B"/>
<line x1="345" y1="327" x2="345" y2="337" stroke="#2B2B2B" stroke-width="2"/>
<line x1="21" y1="348" x2="31" y2="348" stroke="#2B2B2B" stroke-width="2"/>
<rect x="21" y="419" width="10" height="10" fill="#2B2B2B"/>
<rect x="21" y="435" width="3" height="3" fill="#2B2B2B"/>
<rect x="21" y="445" width="3" height="3" fill="#2B2B2B"/>
<rect x="24" y="494" width="3" height="3" fill="#2B2B2B"/>
<rect x="403" y="546" width="3" height="3" fill="#2B2B2B"/>
<line x1="24" y1="677" x2="34" y2="677" stroke="#2B2B2B" stroke-width="2"/>
<mask id="path-15-outside-1_140_194" maskUnits="userSpaceOnUse" x="337" y="24" width="82" height="819" fill="black">
<rect fill="white" x="337" y="24" width="82" height="819"/>
<path d="M342.536 28.608H354.728C356.008 28.608 357.064 29.12 357.896 30.144L392.456 75.072V29.76C392.456 29.44 392.552 29.184 392.744 28.992C393 28.736 393.288 28.608 393.608 28.608H403.496C403.816 28.608 404.072 28.736 404.264 28.992C404.52 29.184 404.648 29.44 404.648 29.76V94.656C404.648 95.424 404.264 95.808 403.496 95.808H394.376C393.096 95.808 392.04 95.296 391.208 94.272L341.864 29.952C341.608 29.696 341.576 29.408 341.768 29.088C341.96 28.768 342.216 28.608 342.536 28.608ZM348.008 200.848V135.952C348.008 135.632 348.104 135.376 348.296 135.184C348.552 134.928 348.84 134.8 349.16 134.8H358.28C359.56 134.8 360.616 135.312 361.448 136.336L410.888 200.656C411.08 200.976 411.08 201.296 410.888 201.616C410.76 201.872 410.504 202 410.12 202H397.928C396.648 202 395.592 201.488 394.76 200.464L378.152 178.768L361.448 200.464C360.616 201.488 359.56 202 358.28 202H349.16C348.84 202 348.552 201.904 348.296 201.712C348.104 201.456 348.008 201.168 348.008 200.848ZM360.296 155.536V181.264L370.184 168.4L360.296 155.536ZM349.16 240.8H359.048C359.88 240.8 360.296 241.184 360.296 241.952V295.808H387.176C387.56 295.808 387.816 295.968 387.944 296.288C388.136 296.608 388.136 296.896 387.944 297.152L380.744 306.464C379.912 307.488 378.888 308 377.672 308H349.16C348.84 308 348.552 307.904 348.296 307.712C348.104 307.456 348.008 307.168 348.008 306.848V241.952C348.008 241.632 348.104 241.376 348.296 241.184C348.552 240.928 348.84 240.8 349.16 240.8ZM345.32 380.112C345.32 375.184 346.216 370.608 348.008 366.384C349.864 362.096 352.328 358.416 355.4 355.344C358.536 352.208 362.216 349.776 366.44 348.048C370.664 346.256 375.208 345.392 380.072 345.456C384.936 345.52 389.48 346.48 393.704 348.336C397.928 350.192 401.576 352.72 404.648 355.92C407.784 359.12 410.248 362.864 412.04 367.152C413.832 371.376 414.696 375.888 414.632 380.688C414.568 385.552 413.608 390.096 411.752 394.32C409.896 398.544 407.368 402.224 404.168 405.36C401.032 408.496 397.352 410.96 393.128 412.752C388.904 414.48 384.36 415.344 379.496 415.344C374.696 415.344 370.184 414.448 365.96 412.656C361.8 410.8 358.184 408.304 355.112 405.168C352.04 401.968 349.64 398.224 347.912 393.936C346.184 389.648 345.32 385.04 345.32 380.112ZM357.608 380.592C357.608 383.728 358.216 386.704 359.432 389.52C360.648 392.336 362.28 394.8 364.328 396.912C366.376 399.024 368.744 400.688 371.432 401.904C374.12 403.12 377 403.728 380.072 403.728C383.08 403.664 385.928 402.992 388.616 401.712C391.304 400.432 393.64 398.736 395.624 396.624C397.672 394.448 399.272 391.952 400.424 389.136C401.576 386.256 402.12 383.248 402.056 380.112C402.056 376.976 401.448 374 400.232 371.184C399.016 368.368 397.384 365.936 395.336 363.888C393.288 361.776 390.888 360.112 388.136 358.896C385.448 357.68 382.6 357.072 379.592 357.072C376.584 357.136 373.736 357.808 371.048 359.088C368.36 360.304 366.024 362 364.04 364.176C362.056 366.288 360.488 368.752 359.336 371.568C358.184 374.384 357.608 377.392 357.608 380.592ZM348.008 453.76C348.008 453.44 348.104 453.184 348.296 452.992C348.552 452.736 348.84 452.608 349.16 452.608H399.848C400.168 452.608 400.424 452.736 400.616 452.992C400.872 453.184 401 453.44 401 453.76V467.872C401 468.768 400.712 469.568 400.136 470.272L384.968 490.144L406.664 518.464C406.856 518.784 406.856 519.104 406.664 519.424C406.536 519.68 406.312 519.808 405.992 519.808H393.8C392.52 519.808 391.464 519.296 390.632 518.272L369.608 490.912C369.16 490.4 369.16 489.92 369.608 489.472L388.52 464.8H360.296V518.656C360.296 519.424 359.88 519.808 359.048 519.808H349.16C348.84 519.808 348.552 519.712 348.296 519.52C348.104 519.264 348.008 518.976 348.008 518.656V453.76ZM348.008 624.848V559.952C348.008 559.632 348.104 559.376 348.296 559.184C348.552 558.928 348.84 558.8 349.16 558.8H358.28C359.56 558.8 360.616 559.312 361.448 560.336L410.888 624.656C411.08 624.976 411.08 625.296 410.888 625.616C410.76 625.872 410.504 626 410.12 626H397.928C396.648 626 395.592 625.488 394.76 624.464L378.152 602.768L361.448 624.464C360.616 625.488 359.56 626 358.28 626H349.16C348.84 626 348.552 625.904 348.296 625.712C348.104 625.456 348.008 625.168 348.008 624.848ZM360.296 579.536V605.264L370.184 592.4L360.296 579.536ZM348.008 730.848V665.952C348.008 665.632 348.104 665.376 348.296 665.184C348.552 664.928 348.84 664.8 349.16 664.8H358.28C359.56 664.8 360.616 665.312 361.448 666.336L396.008 711.264V665.952C396.008 665.184 396.392 664.8 397.16 664.8H407.048C407.816 664.8 408.2 665.184 408.2 665.952V730.848C408.2 731.616 407.816 732 407.048 732H397.928C396.648 732 395.592 731.488 394.76 730.464L360.296 685.536V730.848C360.296 731.616 359.88 732 359.048 732H349.16C348.84 732 348.552 731.904 348.296 731.712C348.104 731.456 348.008 731.168 348.008 730.848ZM344.648 771.76C344.648 771.44 344.744 771.184 344.936 770.992C345.192 770.736 345.48 770.608 345.8 770.608H387.464C388.744 770.608 389.8 771.12 390.632 772.144L397.736 781.456C397.992 781.776 398.024 782.096 397.832 782.416C397.704 782.672 397.448 782.8 397.064 782.8H375.656V836.656C375.656 837.424 375.272 837.808 374.504 837.808H364.616C363.848 837.808 363.464 837.424 363.464 836.656V782.8H345.8C345.48 782.8 345.192 782.704 344.936 782.512C344.744 782.256 344.648 781.968 344.648 781.648V771.76Z"/>
</mask>
<path d="M357.896 30.144L361.243 27.5697L361.208 27.5251L361.173 27.4815L357.896 30.144ZM392.456 75.072L389.109 77.6463L396.678 87.4858V75.072H392.456ZM392.744 28.992L395.73 31.9776L395.73 31.9776L392.744 28.992ZM404.264 28.992L400.886 31.5253L401.248 32.0079L401.731 32.3698L404.264 28.992ZM391.208 94.272L387.858 96.842L387.894 96.8888L387.931 96.9345L391.208 94.272ZM341.864 29.952L345.214 27.382L345.045 27.1623L344.85 26.9664L341.864 29.952ZM341.768 29.088L338.147 26.9157L341.768 29.088ZM342.536 32.8302H354.728V24.3858H342.536V32.8302ZM354.728 32.8302C354.765 32.8302 354.767 32.8338 354.742 32.8283C354.716 32.8226 354.678 32.8108 354.638 32.7912C354.598 32.7717 354.573 32.7535 354.565 32.7472C354.559 32.7419 354.578 32.7565 354.619 32.8065L361.173 27.4815C359.568 25.5059 357.324 24.3858 354.728 24.3858V32.8302ZM354.549 32.7183L389.109 77.6463L395.803 72.4977L361.243 27.5697L354.549 32.7183ZM396.678 75.072V29.76H388.234V75.072H396.678ZM396.678 29.76C396.678 30.0216 396.639 30.3912 396.481 30.8105C396.319 31.2429 396.063 31.6444 395.73 31.9776L389.758 26.0064C388.634 27.1304 388.234 28.5354 388.234 29.76H396.678ZM395.73 31.9776C395.545 32.1622 395.261 32.387 394.867 32.5623C394.462 32.742 394.029 32.8302 393.608 32.8302V24.3858C392.017 24.3858 390.693 25.072 389.758 26.0064L395.73 31.9776ZM393.608 32.8302H403.496V24.3858H393.608V32.8302ZM403.496 32.8302C403.079 32.8302 402.564 32.7427 402.04 32.4805C401.515 32.2183 401.137 31.8592 400.886 31.5253L407.642 26.4587C406.652 25.1395 405.145 24.3858 403.496 24.3858V32.8302ZM401.731 32.3698C401.397 32.1194 401.038 31.7407 400.776 31.2162C400.513 30.6918 400.426 30.1773 400.426 29.76H408.87C408.87 28.111 408.117 26.6036 406.797 25.6142L401.731 32.3698ZM400.426 29.76V94.656H408.87V29.76H400.426ZM400.426 94.656C400.426 94.3892 400.495 93.4135 401.374 92.5344C402.254 91.6553 403.229 91.5858 403.496 91.5858V100.03C404.531 100.03 406.082 99.7687 407.346 98.5056C408.609 97.2425 408.87 95.6908 408.87 94.656H400.426ZM403.496 91.5858H394.376V100.03H403.496V91.5858ZM394.376 91.5858C394.339 91.5858 394.337 91.5822 394.362 91.5877C394.388 91.5934 394.426 91.6052 394.466 91.6248C394.506 91.6443 394.531 91.6625 394.539 91.6688C394.545 91.6741 394.526 91.6595 394.485 91.6095L387.931 96.9345C389.536 98.9101 391.78 100.03 394.376 100.03V91.5858ZM394.558 91.702L345.214 27.382L338.514 32.522L387.858 96.842L394.558 91.702ZM344.85 26.9664C345.226 27.3433 345.73 28.0512 345.844 29.0777C345.957 30.0874 345.63 30.8573 345.389 31.2603L338.147 26.9157C337.714 27.6387 337.307 28.7126 337.452 30.0103C337.598 31.3248 338.246 32.3046 338.878 32.9376L344.85 26.9664ZM345.389 31.2603C345.221 31.5397 344.897 31.9611 344.342 32.3084C343.758 32.6734 343.118 32.8302 342.536 32.8302V24.3858C340.463 24.3858 338.953 25.5739 338.147 26.9157L345.389 31.2603ZM348.296 135.184L345.31 132.198L345.31 132.198L348.296 135.184ZM361.448 136.336L364.796 133.763L364.761 133.718L364.725 133.674L361.448 136.336ZM410.888 200.656L414.509 198.484L414.384 198.275L414.236 198.083L410.888 200.656ZM410.888 201.616L407.267 199.444L407.184 199.583L407.112 199.728L410.888 201.616ZM394.76 200.464L391.407 203.03L391.444 203.079L391.483 203.127L394.76 200.464ZM378.152 178.768L381.505 176.202L378.162 171.834L374.806 176.192L378.152 178.768ZM361.448 200.464L364.725 203.127L364.76 203.084L364.794 203.04L361.448 200.464ZM348.296 201.712L344.918 204.245L345.28 204.728L345.763 205.09L348.296 201.712ZM360.296 155.536L363.644 152.963L356.074 143.115V155.536H360.296ZM360.296 181.264H356.074V193.685L363.644 183.837L360.296 181.264ZM370.184 168.4L373.532 170.973L375.509 168.4L373.532 165.827L370.184 168.4ZM352.23 200.848V135.952H343.786V200.848H352.23ZM352.23 135.952C352.23 136.214 352.191 136.583 352.033 137.003C351.871 137.435 351.615 137.836 351.282 138.17L345.31 132.198C344.186 133.322 343.786 134.727 343.786 135.952H352.23ZM351.282 138.17C351.097 138.354 350.813 138.579 350.419 138.754C350.014 138.934 349.581 139.022 349.16 139.022V130.578C347.569 130.578 346.245 131.264 345.31 132.198L351.282 138.17ZM349.16 139.022H358.28V130.578H349.16V139.022ZM358.28 139.022C358.317 139.022 358.319 139.026 358.294 139.02C358.268 139.015 358.23 139.003 358.19 138.983C358.15 138.964 358.125 138.945 358.117 138.939C358.111 138.934 358.13 138.949 358.171 138.998L364.725 133.674C363.12 131.698 360.876 130.578 358.28 130.578V139.022ZM358.1 138.909L407.54 203.229L414.236 198.083L364.796 133.763L358.1 138.909ZM407.267 202.828C407.036 202.443 406.81 201.861 406.81 201.136C406.81 200.411 407.036 199.829 407.267 199.444L414.509 203.788C414.932 203.083 415.254 202.181 415.254 201.136C415.254 200.091 414.932 199.189 414.509 198.484L407.267 202.828ZM407.112 199.728C407.456 199.039 408.023 198.472 408.712 198.128C409.335 197.816 409.87 197.778 410.12 197.778V206.222C411.466 206.222 413.575 205.684 414.664 203.504L407.112 199.728ZM410.12 197.778H397.928V206.222H410.12V197.778ZM397.928 197.778C397.891 197.778 397.889 197.774 397.914 197.78C397.94 197.785 397.978 197.797 398.018 197.817C398.058 197.836 398.083 197.855 398.091 197.861C398.097 197.866 398.078 197.851 398.037 197.801L391.483 203.127C393.088 205.102 395.332 206.222 397.928 206.222V197.778ZM398.113 197.898L381.505 176.202L374.799 181.334L391.407 203.03L398.113 197.898ZM374.806 176.192L358.102 197.888L364.794 203.04L381.498 181.344L374.806 176.192ZM358.171 197.801C358.13 197.851 358.111 197.866 358.117 197.861C358.125 197.855 358.15 197.836 358.19 197.817C358.23 197.797 358.268 197.785 358.294 197.78C358.319 197.774 358.317 197.778 358.28 197.778V206.222C360.876 206.222 363.12 205.102 364.725 203.127L358.171 197.801ZM358.28 197.778H349.16V206.222H358.28V197.778ZM349.16 197.778C349.429 197.778 349.73 197.819 350.039 197.922C350.349 198.026 350.614 198.173 350.829 198.334L345.763 205.09C346.75 205.83 347.926 206.222 349.16 206.222V197.778ZM351.674 199.179C351.835 199.394 351.982 199.659 352.086 199.969C352.189 200.278 352.23 200.579 352.23 200.848H343.786C343.786 202.082 344.178 203.258 344.918 204.245L351.674 199.179ZM356.074 155.536V181.264H364.518V155.536H356.074ZM363.644 183.837L373.532 170.973L366.836 165.827L356.948 178.691L363.644 183.837ZM373.532 165.827L363.644 152.963L356.948 158.109L366.836 170.973L373.532 165.827ZM360.296 295.808H356.074V300.03H360.296V295.808ZM387.944 296.288L384.024 297.856L384.149 298.17L384.323 298.46L387.944 296.288ZM387.944 297.152L391.284 299.735L391.303 299.71L391.322 299.685L387.944 297.152ZM380.744 306.464L384.021 309.126L384.053 309.087L384.084 309.047L380.744 306.464ZM348.296 307.712L344.918 310.245L345.28 310.728L345.763 311.09L348.296 307.712ZM348.296 241.184L345.31 238.198H345.31L348.296 241.184ZM349.16 245.022H359.048V236.578H349.16V245.022ZM359.048 245.022C358.893 245.022 357.99 244.994 357.12 244.19C356.186 243.328 356.074 242.309 356.074 241.952H364.518C364.518 240.827 364.198 239.232 362.848 237.985C361.562 236.798 360.035 236.578 359.048 236.578V245.022ZM356.074 241.952V295.808H364.518V241.952H356.074ZM360.296 300.03H387.176V291.586H360.296V300.03ZM387.176 300.03C386.79 300.03 386.121 299.948 385.418 299.508C384.681 299.048 384.244 298.406 384.024 297.856L391.864 294.72C391.516 293.85 390.887 292.968 389.894 292.348C388.935 291.748 387.946 291.586 387.176 291.586V300.03ZM384.323 298.46C384.14 298.154 383.866 297.56 383.866 296.744C383.866 295.873 384.178 295.136 384.566 294.619L391.322 299.685C391.902 298.912 392.31 297.903 392.31 296.744C392.31 295.64 391.94 294.742 391.565 294.116L384.323 298.46ZM384.604 294.569L377.404 303.881L384.084 309.047L391.284 299.735L384.604 294.569ZM377.467 303.801C377.418 303.862 377.391 303.884 377.392 303.883C377.394 303.881 377.418 303.862 377.464 303.84C377.51 303.816 377.56 303.799 377.607 303.788C377.653 303.777 377.678 303.778 377.672 303.778V312.222C380.278 312.222 382.465 311.041 384.021 309.126L377.467 303.801ZM377.672 303.778H349.16V312.222H377.672V303.778ZM349.16 303.778C349.429 303.778 349.73 303.819 350.039 303.922C350.349 304.026 350.614 304.173 350.829 304.334L345.763 311.09C346.75 311.83 347.926 312.222 349.16 312.222V303.778ZM351.674 305.179C351.835 305.394 351.982 305.659 352.086 305.969C352.189 306.278 352.23 306.579 352.23 306.848H343.786C343.786 308.082 344.178 309.258 344.918 310.245L351.674 305.179ZM352.23 306.848V241.952H343.786V306.848H352.23ZM352.23 241.952C352.23 242.214 352.191 242.583 352.033 243.003C351.871 243.435 351.615 243.836 351.282 244.17L345.31 238.198C344.186 239.322 343.786 240.727 343.786 241.952H352.23ZM351.282 244.17C351.097 244.354 350.813 244.579 350.419 244.754C350.014 244.934 349.581 245.022 349.16 245.022V236.578C347.569 236.578 346.245 237.264 345.31 238.198L351.282 244.17ZM348.008 366.384L344.133 364.707L344.127 364.721L344.121 364.735L348.008 366.384ZM355.4 355.344L358.386 358.33H358.386L355.4 355.344ZM366.44 348.048L368.039 351.956L368.064 351.946L368.089 351.935L366.44 348.048ZM380.072 345.456L380.016 349.678L380.072 345.456ZM393.704 348.336L392.006 352.202L393.704 348.336ZM404.648 355.92L401.602 358.844L401.617 358.86L401.632 358.875L404.648 355.92ZM412.04 367.152L408.144 368.78L408.149 368.791L408.153 368.801L412.04 367.152ZM414.632 380.688L410.41 380.632L410.41 380.632L414.632 380.688ZM411.752 394.32L415.618 396.018L411.752 394.32ZM404.168 405.36L401.213 402.344L401.198 402.359L401.182 402.374L404.168 405.36ZM393.128 412.752L394.727 416.66L394.752 416.65L394.777 416.639L393.128 412.752ZM365.96 412.656L364.24 416.512L364.275 416.528L364.311 416.543L365.96 412.656ZM355.112 405.168L352.066 408.092L352.081 408.107L352.096 408.123L355.112 405.168ZM347.912 393.936L343.996 395.514H343.996L347.912 393.936ZM359.432 389.52L355.556 391.194L359.432 389.52ZM364.328 396.912L367.359 393.973L364.328 396.912ZM371.432 401.904L369.692 405.751L369.692 405.751L371.432 401.904ZM380.072 403.728V407.95H380.117L380.162 407.949L380.072 403.728ZM388.616 401.712L386.801 397.9L388.616 401.712ZM395.624 396.624L392.549 393.73L392.547 393.733L395.624 396.624ZM400.424 389.136L404.332 390.735L404.338 390.719L404.344 390.704L400.424 389.136ZM402.056 380.112H397.834V380.155L397.835 380.198L402.056 380.112ZM395.336 363.888L392.305 366.827L392.327 366.851L392.35 366.874L395.336 363.888ZM388.136 358.896L386.396 362.743L386.413 362.751L386.43 362.758L388.136 358.896ZM379.592 357.072V352.85H379.547L379.502 352.851L379.592 357.072ZM371.048 359.088L372.788 362.935L372.826 362.918L372.863 362.9L371.048 359.088ZM364.04 364.176L367.117 367.067L367.139 367.044L367.16 367.021L364.04 364.176ZM359.336 371.568L363.244 373.167L359.336 371.568ZM349.542 380.112C349.542 375.708 350.34 371.698 351.895 368.033L344.121 364.735C342.092 369.518 341.098 374.66 341.098 380.112H349.542ZM351.883 368.061C353.544 364.224 355.717 360.998 358.386 358.33L352.414 352.358C348.939 355.834 346.184 359.968 344.133 364.707L351.883 368.061ZM358.386 358.33C361.113 355.602 364.318 353.478 368.039 351.956L364.841 344.14C360.114 346.074 355.959 348.814 352.414 352.358L358.386 358.33ZM368.089 351.935C371.742 350.385 375.702 349.621 380.016 349.678L380.128 341.234C374.714 341.163 369.586 342.127 364.791 344.161L368.089 351.935ZM380.016 349.678C384.346 349.735 388.328 350.585 392.006 352.202L395.402 344.47C390.632 342.375 385.526 341.305 380.128 341.234L380.016 349.678ZM392.006 352.202C395.744 353.844 398.929 356.059 401.602 358.844L407.694 352.996C404.223 349.381 400.112 346.54 395.402 344.47L392.006 352.202ZM401.632 358.875C404.38 361.678 406.551 364.968 408.144 368.78L415.936 365.524C413.945 360.76 411.188 356.562 407.664 352.965L401.632 358.875ZM408.153 368.801C409.706 372.461 410.467 376.39 410.41 380.632L418.854 380.744C418.925 375.386 417.958 370.291 415.927 365.503L408.153 368.801ZM410.41 380.632C410.353 384.962 409.503 388.944 407.886 392.622L415.618 396.018C417.713 391.248 418.783 386.142 418.854 380.744L410.41 380.632ZM407.886 392.622C406.241 396.367 404.017 399.597 401.213 402.344L407.123 408.376C410.719 404.851 413.551 400.721 415.618 396.018L407.886 392.622ZM401.182 402.374C398.443 405.114 395.221 407.277 391.479 408.865L394.777 416.639C399.483 414.643 403.621 411.878 407.154 408.346L401.182 402.374ZM391.529 408.844C387.845 410.351 383.848 411.122 379.496 411.122V419.566C384.872 419.566 389.963 418.609 394.727 416.66L391.529 408.844ZM379.496 411.122C375.236 411.122 371.287 410.33 367.609 408.769L364.311 416.543C369.081 418.566 374.156 419.566 379.496 419.566V411.122ZM367.68 408.8C363.987 407.152 360.815 404.956 358.128 402.213L352.096 408.123C355.553 411.652 359.613 414.448 364.24 416.512L367.68 408.8ZM358.158 402.244C355.475 399.449 353.363 396.167 351.828 392.358L343.996 395.514C345.917 400.281 348.605 404.487 352.066 408.092L358.158 402.244ZM351.828 392.358C350.315 388.604 349.542 384.535 349.542 380.112H341.098C341.098 385.545 342.053 390.692 343.996 395.514L351.828 392.358ZM353.386 380.592C353.386 384.29 354.106 387.837 355.556 391.194L363.308 387.846C362.326 385.571 361.83 383.166 361.83 380.592H353.386ZM355.556 391.194C356.966 394.459 358.878 397.357 361.297 399.851L367.359 393.973C365.682 392.243 364.33 390.213 363.308 387.846L355.556 391.194ZM361.297 399.851C363.715 402.345 366.522 404.317 369.692 405.751L373.172 398.057C370.966 397.059 369.037 395.703 367.359 393.973L361.297 399.851ZM369.692 405.751C372.949 407.225 376.425 407.95 380.072 407.95V399.506C377.575 399.506 375.291 399.015 373.172 398.057L369.692 405.751ZM380.162 407.949C383.761 407.873 387.198 407.064 390.431 405.524L386.801 397.9C384.658 398.92 382.399 399.455 379.982 399.507L380.162 407.949ZM390.431 405.524C393.58 404.025 396.348 402.02 398.701 399.515L392.547 393.733C390.932 395.452 389.028 396.839 386.801 397.9L390.431 405.524ZM398.699 399.518C401.108 396.958 402.987 394.021 404.332 390.735L396.516 387.537C395.557 389.883 394.236 391.938 392.549 393.73L398.699 399.518ZM404.344 390.704C405.709 387.292 406.353 383.721 406.277 380.026L397.835 380.198C397.887 382.775 397.443 385.22 396.504 387.568L404.344 390.704ZM406.278 380.112C406.278 376.414 405.558 372.867 404.108 369.51L396.356 372.858C397.338 375.133 397.834 377.538 397.834 380.112H406.278ZM404.108 369.51C402.694 366.234 400.769 363.349 398.322 360.902L392.35 366.874C393.999 368.523 395.339 370.502 396.356 372.858L404.108 369.51ZM398.367 360.949C395.932 358.438 393.08 356.464 389.842 355.034L386.43 362.758C388.696 363.76 390.644 365.114 392.305 366.827L398.367 360.949ZM389.876 355.049C386.631 353.581 383.188 352.85 379.592 352.85V361.294C382.012 361.294 384.265 361.779 386.396 362.743L389.876 355.049ZM379.502 352.851C375.903 352.927 372.466 353.736 369.233 355.276L372.863 362.9C375.006 361.88 377.265 361.345 379.682 361.293L379.502 352.851ZM369.308 355.241C366.097 356.693 363.292 358.73 360.92 361.331L367.16 367.021C368.756 365.27 370.623 363.915 372.788 362.935L369.308 355.241ZM360.963 361.285C358.608 363.792 356.766 366.7 355.428 369.969L363.244 373.167C364.21 370.804 365.504 368.784 367.117 367.067L360.963 361.285ZM355.428 369.969C354.058 373.319 353.386 376.873 353.386 380.592H361.83C361.83 377.911 362.31 375.449 363.244 373.167L355.428 369.969ZM348.296 452.992L351.282 455.978H351.282L348.296 452.992ZM400.616 452.992L397.238 455.525L397.6 456.008L398.083 456.37L400.616 452.992ZM400.136 470.272L396.868 467.598L396.823 467.654L396.78 467.71L400.136 470.272ZM384.968 490.144L381.612 487.582L379.653 490.149L381.616 492.712L384.968 490.144ZM406.664 518.464L410.285 516.292L410.161 516.086L410.016 515.896L406.664 518.464ZM406.664 519.424L403.043 517.252L402.96 517.391L402.888 517.536L406.664 519.424ZM390.632 518.272L387.284 520.845L387.319 520.89L387.355 520.935L390.632 518.272ZM369.608 490.912L372.956 488.339L372.874 488.233L372.786 488.132L369.608 490.912ZM369.608 489.472L372.594 492.458L372.79 492.261L372.959 492.041L369.608 489.472ZM388.52 464.8L391.871 467.369L397.076 460.578H388.52V464.8ZM360.296 464.8V460.578H356.074V464.8H360.296ZM348.296 519.52L344.918 522.053L345.28 522.536L345.763 522.898L348.296 519.52ZM352.23 453.76C352.23 454.022 352.191 454.391 352.033 454.811C351.871 455.243 351.615 455.644 351.282 455.978L345.31 450.006C344.186 451.13 343.786 452.535 343.786 453.76H352.23ZM351.282 455.978C351.097 456.162 350.813 456.387 350.419 456.562C350.014 456.742 349.581 456.83 349.16 456.83V448.386C347.569 448.386 346.245 449.072 345.31 450.006L351.282 455.978ZM349.16 456.83H399.848V448.386H349.16V456.83ZM399.848 456.83C399.431 456.83 398.916 456.743 398.392 456.48C397.867 456.218 397.489 455.859 397.238 455.525L403.994 450.459C403.004 449.139 401.497 448.386 399.848 448.386V456.83ZM398.083 456.37C397.749 456.119 397.39 455.741 397.128 455.216C396.865 454.692 396.778 454.177 396.778 453.76H405.222C405.222 452.111 404.469 450.604 403.149 449.614L398.083 456.37ZM396.778 453.76V467.872H405.222V453.76H396.778ZM396.778 467.872C396.778 467.859 396.781 467.797 396.811 467.714C396.841 467.632 396.874 467.592 396.868 467.598L403.404 472.946C404.587 471.5 405.222 469.759 405.222 467.872H396.778ZM396.78 467.71L381.612 487.582L388.324 492.706L403.492 472.834L396.78 467.71ZM381.616 492.712L403.312 521.032L410.016 515.896L388.32 487.576L381.616 492.712ZM403.043 520.636C402.812 520.251 402.586 519.669 402.586 518.944C402.586 518.219 402.812 517.637 403.043 517.252L410.285 521.596C410.708 520.891 411.03 519.989 411.03 518.944C411.03 517.899 410.708 516.997 410.285 516.292L403.043 520.636ZM402.888 517.536C403.154 517.003 403.615 516.44 404.305 516.046C404.967 515.668 405.592 515.586 405.992 515.586V524.03C406.712 524.03 407.609 523.884 408.495 523.378C409.409 522.856 410.046 522.101 410.44 521.312L402.888 517.536ZM405.992 515.586H393.8V524.03H405.992V515.586ZM393.8 515.586C393.763 515.586 393.761 515.582 393.786 515.588C393.812 515.593 393.85 515.605 393.89 515.625C393.93 515.644 393.955 515.663 393.963 515.669C393.969 515.674 393.95 515.659 393.909 515.609L387.355 520.935C388.96 522.91 391.204 524.03 393.8 524.03V515.586ZM393.98 515.699L372.956 488.339L366.26 493.485L387.284 520.845L393.98 515.699ZM372.786 488.132C372.957 488.327 373.494 489.03 373.494 490.168C373.494 491.371 372.899 492.152 372.594 492.458L366.622 486.486C365.869 487.24 365.05 488.485 365.05 490.168C365.05 491.786 365.811 492.985 366.43 493.692L372.786 488.132ZM372.959 492.041L391.871 467.369L385.169 462.231L366.257 486.903L372.959 492.041ZM388.52 460.578H360.296V469.022H388.52V460.578ZM356.074 464.8V518.656H364.518V464.8H356.074ZM356.074 518.656C356.074 518.299 356.186 517.28 357.12 516.418C357.99 515.614 358.893 515.586 359.048 515.586V524.03C360.035 524.03 361.562 523.81 362.848 522.622C364.198 521.376 364.518 519.781 364.518 518.656H356.074ZM359.048 515.586H349.16V524.03H359.048V515.586ZM349.16 515.586C349.429 515.586 349.73 515.627 350.039 515.73C350.349 515.834 350.614 515.981 350.829 516.142L345.763 522.898C346.75 523.638 347.926 524.03 349.16 524.03V515.586ZM351.674 516.987C351.835 517.202 351.982 517.467 352.086 517.777C352.189 518.086 352.23 518.387 352.23 518.656H343.786C343.786 519.89 344.178 521.066 344.918 522.053L351.674 516.987ZM352.23 518.656V453.76H343.786V518.656H352.23ZM348.296 559.184L345.31 556.198H345.31L348.296 559.184ZM361.448 560.336L364.796 557.763L364.761 557.718L364.725 557.674L361.448 560.336ZM410.888 624.656L414.509 622.484L414.384 622.275L414.236 622.083L410.888 624.656ZM410.888 625.616L407.267 623.444L407.184 623.583L407.112 623.728L410.888 625.616ZM394.76 624.464L391.407 627.03L391.444 627.079L391.483 627.127L394.76 624.464ZM378.152 602.768L381.505 600.202L378.162 595.834L374.806 600.192L378.152 602.768ZM361.448 624.464L364.725 627.127L364.76 627.084L364.794 627.04L361.448 624.464ZM348.296 625.712L344.918 628.245L345.28 628.728L345.763 629.09L348.296 625.712ZM360.296 579.536L363.644 576.963L356.074 567.115V579.536H360.296ZM360.296 605.264H356.074V617.685L363.644 607.837L360.296 605.264ZM370.184 592.4L373.532 594.973L375.509 592.4L373.532 589.827L370.184 592.4ZM352.23 624.848V559.952H343.786V624.848H352.23ZM352.23 559.952C352.23 560.214 352.191 560.583 352.033 561.003C351.871 561.435 351.615 561.836 351.282 562.17L345.31 556.198C344.186 557.322 343.786 558.727 343.786 559.952H352.23ZM351.282 562.17C351.097 562.354 350.813 562.579 350.419 562.754C350.014 562.934 349.581 563.022 349.16 563.022V554.578C347.569 554.578 346.245 555.264 345.31 556.198L351.282 562.17ZM349.16 563.022H358.28V554.578H349.16V563.022ZM358.28 563.022C358.317 563.022 358.319 563.026 358.294 563.02C358.268 563.015 358.23 563.003 358.19 562.983C358.15 562.964 358.125 562.945 358.117 562.939C358.111 562.934 358.13 562.949 358.171 562.998L364.725 557.674C363.12 555.698 360.876 554.578 358.28 554.578V563.022ZM358.1 562.909L407.54 627.229L414.236 622.083L364.796 557.763L358.1 562.909ZM407.267 626.828C407.036 626.443 406.81 625.861 406.81 625.136C406.81 624.411 407.036 623.829 407.267 623.444L414.509 627.788C414.932 627.083 415.254 626.181 415.254 625.136C415.254 624.091 414.932 623.189 414.509 622.484L407.267 626.828ZM407.112 623.728C407.456 623.039 408.023 622.472 408.712 622.128C409.335 621.816 409.87 621.778 410.12 621.778V630.222C411.466 630.222 413.575 629.684 414.664 627.504L407.112 623.728ZM410.12 621.778H397.928V630.222H410.12V621.778ZM397.928 621.778C397.891 621.778 397.889 621.774 397.914 621.78C397.94 621.785 397.978 621.797 398.018 621.817C398.058 621.836 398.083 621.855 398.091 621.861C398.097 621.866 398.078 621.851 398.037 621.802L391.483 627.127C393.088 629.102 395.332 630.222 397.928 630.222V621.778ZM398.113 621.898L381.505 600.202L374.799 605.334L391.407 627.03L398.113 621.898ZM374.806 600.192L358.102 621.888L364.794 627.04L381.498 605.344L374.806 600.192ZM358.171 621.802C358.13 621.851 358.111 621.866 358.117 621.861C358.125 621.855 358.15 621.836 358.19 621.817C358.23 621.797 358.268 621.785 358.294 621.78C358.319 621.774 358.317 621.778 358.28 621.778V630.222C360.876 630.222 363.12 629.102 364.725 627.127L358.171 621.802ZM358.28 621.778H349.16V630.222H358.28V621.778ZM349.16 621.778C349.429 621.778 349.73 621.819 350.039 621.922C350.349 622.026 350.614 622.173 350.829 622.334L345.763 629.09C346.75 629.83 347.926 630.222 349.16 630.222V621.778ZM351.674 623.179C351.835 623.394 351.982 623.659 352.086 623.969C352.189 624.278 352.23 624.579 352.23 624.848H343.786C343.786 626.082 344.178 627.258 344.918 628.245L351.674 623.179ZM356.074 579.536V605.264H364.518V579.536H356.074ZM363.644 607.837L373.532 594.973L366.836 589.827L356.948 602.691L363.644 607.837ZM373.532 589.827L363.644 576.963L356.948 582.109L366.836 594.973L373.532 589.827ZM348.296 665.184L345.31 662.198H345.31L348.296 665.184ZM361.448 666.336L364.795 663.762L364.76 663.717L364.725 663.674L361.448 666.336ZM396.008 711.264L392.661 713.838L400.23 723.678V711.264H396.008ZM394.76 730.464L391.41 733.034L391.446 733.081L391.483 733.127L394.76 730.464ZM360.296 685.536L363.646 682.966L356.074 673.095V685.536H360.296ZM348.296 731.712L344.918 734.245L345.28 734.728L345.763 735.09L348.296 731.712ZM352.23 730.848V665.952H343.786V730.848H352.23ZM352.23 665.952C352.23 666.214 352.191 666.583 352.033 667.003C351.871 667.435 351.615 667.836 351.282 668.17L345.31 662.198C344.186 663.322 343.786 664.727 343.786 665.952H352.23ZM351.282 668.17C351.097 668.354 350.813 668.579 350.419 668.754C350.014 668.934 349.581 669.022 349.16 669.022V660.578C347.569 660.578 346.245 661.264 345.31 662.198L351.282 668.17ZM349.16 669.022H358.28V660.578H349.16V669.022ZM358.28 669.022C358.317 669.022 358.319 669.026 358.294 669.02C358.268 669.015 358.23 669.003 358.19 668.983C358.15 668.964 358.125 668.945 358.117 668.939C358.111 668.934 358.13 668.949 358.171 668.998L364.725 663.674C363.12 661.698 360.876 660.578 358.28 660.578V669.022ZM358.101 668.91L392.661 713.838L399.355 708.69L364.795 663.762L358.101 668.91ZM400.23 711.264V665.952H391.786V711.264H400.23ZM400.23 665.952C400.23 666.219 400.161 667.194 399.282 668.074C398.402 668.953 397.427 669.022 397.16 669.022V660.578C396.125 660.578 394.574 660.839 393.31 662.102C392.047 663.366 391.786 664.917 391.786 665.952H400.23ZM397.16 669.022H407.048V660.578H397.16V669.022ZM407.048 669.022C406.781 669.022 405.806 668.953 404.926 668.074C404.047 667.194 403.978 666.219 403.978 665.952H412.422C412.422 664.917 412.161 663.366 410.898 662.102C409.634 660.839 408.083 660.578 407.048 660.578V669.022ZM403.978 665.952V730.848H412.422V665.952H403.978ZM403.978 730.848C403.978 730.581 404.047 729.606 404.926 728.726C405.806 727.847 406.781 727.778 407.048 727.778V736.222C408.083 736.222 409.634 735.961 410.898 734.698C412.161 733.434 412.422 731.883 412.422 730.848H403.978ZM407.048 727.778H397.928V736.222H407.048V727.778ZM397.928 727.778C397.891 727.778 397.889 727.774 397.914 727.78C397.94 727.785 397.978 727.797 398.018 727.817C398.058 727.836 398.083 727.855 398.091 727.861C398.097 727.866 398.078 727.851 398.037 727.802L391.483 733.127C393.088 735.102 395.332 736.222 397.928 736.222V727.778ZM398.11 727.894L363.646 682.966L356.946 688.106L391.41 733.034L398.11 727.894ZM356.074 685.536V730.848H364.518V685.536H356.074ZM356.074 730.848C356.074 730.491 356.186 729.471 357.12 728.609C357.99 727.806 358.893 727.778 359.048 727.778V736.222C360.035 736.222 361.562 736.002 362.848 734.815C364.198 733.568 364.518 731.974 364.518 730.848H356.074ZM359.048 727.778H349.16V736.222H359.048V727.778ZM349.16 727.778C349.429 727.778 349.73 727.819 350.039 727.922C350.349 728.026 350.614 728.173 350.829 728.334L345.763 735.09C346.75 735.83 347.926 736.222 349.16 736.222V727.778ZM351.674 729.179C351.835 729.394 351.982 729.659 352.086 729.969C352.189 730.278 352.23 730.579 352.23 730.848H343.786C343.786 732.082 344.178 733.258 344.918 734.245L351.674 729.179ZM344.936 770.992L347.922 773.978L347.922 773.978L344.936 770.992ZM390.632 772.144L393.989 769.583L393.95 769.532L393.909 769.482L390.632 772.144ZM397.736 781.456L394.379 784.017L394.409 784.056L394.439 784.094L397.736 781.456ZM397.832 782.416L394.211 780.244L394.128 780.383L394.056 780.528L397.832 782.416ZM375.656 782.8V778.578H371.434V782.8H375.656ZM363.464 782.8H367.686V778.578H363.464V782.8ZM344.936 782.512L341.558 785.045L341.92 785.528L342.403 785.89L344.936 782.512ZM348.87 771.76C348.87 772.022 348.831 772.391 348.673 772.811C348.511 773.243 348.255 773.644 347.922 773.978L341.95 768.006C340.826 769.13 340.426 770.535 340.426 771.76H348.87ZM347.922 773.978C347.737 774.162 347.453 774.387 347.059 774.562C346.654 774.742 346.221 774.83 345.8 774.83V766.386C344.209 766.386 342.885 767.072 341.95 768.006L347.922 773.978ZM345.8 774.83H387.464V766.386H345.8V774.83ZM387.464 774.83C387.501 774.83 387.503 774.834 387.478 774.828C387.452 774.823 387.414 774.811 387.374 774.791C387.334 774.772 387.309 774.753 387.301 774.747C387.295 774.742 387.314 774.757 387.355 774.807L393.909 769.482C392.304 767.506 390.06 766.386 387.464 766.386V774.83ZM387.275 774.705L394.379 784.017L401.093 778.895L393.989 769.583L387.275 774.705ZM394.439 784.094C394.196 783.79 393.835 783.203 393.751 782.356C393.662 781.472 393.918 780.733 394.211 780.244L401.453 784.588C401.938 783.779 402.274 782.72 402.153 781.516C402.037 780.349 401.532 779.442 401.033 778.818L394.439 784.094ZM394.056 780.528C394.4 779.839 394.967 779.272 395.656 778.928C396.279 778.616 396.814 778.578 397.064 778.578V787.022C398.41 787.022 400.519 786.484 401.608 784.304L394.056 780.528ZM397.064 778.578H375.656V787.022H397.064V778.578ZM371.434 782.8V836.656H379.878V782.8H371.434ZM371.434 836.656C371.434 836.389 371.503 835.414 372.382 834.534C373.262 833.655 374.237 833.586 374.504 833.586V842.03C375.539 842.03 377.09 841.769 378.354 840.506C379.617 839.242 379.878 837.691 379.878 836.656H371.434ZM374.504 833.586H364.616V842.03H374.504V833.586ZM364.616 833.586C364.883 833.586 365.858 833.655 366.738 834.534C367.617 835.414 367.686 836.389 367.686 836.656H359.242C359.242 837.691 359.503 839.242 360.766 840.506C362.03 841.769 363.581 842.03 364.616 842.03V833.586ZM367.686 836.656V782.8H359.242V836.656H367.686ZM363.464 778.578H345.8V787.022H363.464V778.578ZM345.8 778.578C346.069 778.578 346.37 778.619 346.679 778.722C346.989 778.826 347.254 778.973 347.469 779.134L342.403 785.89C343.39 786.63 344.566 787.022 345.8 787.022V778.578ZM348.314 779.979C348.475 780.194 348.622 780.459 348.726 780.769C348.829 781.078 348.87 781.379 348.87 781.648H340.426C340.426 782.882 340.818 784.058 341.558 785.045L348.314 779.979ZM348.87 781.648V771.76H340.426V781.648H348.87Z" fill="#2B2B2B" fill-opacity="0.05" mask="url(#path-15-outside-1_140_194)"/>
<rect x="354" y="435" width="10" height="10" transform="rotate(-90 354 435)" fill="#2B2B2B"/>
<rect x="370" y="435" width="3" height="3" transform="rotate(-90 370 435)" fill="#2B2B2B"/>
<rect x="380" y="435" width="3" height="3" transform="rotate(-90 380 435)" fill="#2B2B2B"/>
<line x1="370" y1="752" x2="380" y2="752" stroke="#2B2B2B" stroke-width="2"/>
</g>
<defs>
<clipPath id="clip0_140_194">
<rect width="425" height="841" fill="white"/>
</clipPath>
</defs>
</svg>
