<svg width="425" height="841" viewBox="0 0 425 841" fill="none" xmlns="http://www.w3.org/2000/svg">
<g clip-path="url(#clip0_140_101)">
<rect width="425" height="841" fill="#EB565B"/>
<line x1="331.5" y1="847" x2="331.5" y2="2.18557e-08" stroke="#2B2B2B"/>
<rect width="24" height="24" transform="translate(15 271)" fill="white"/>
<path d="M18.064 282.489V275.596L29.8086 290.149H23.9363L18.064 282.489Z" fill="#1E1E1E"/>
<path d="M35.681 275.596L28.0214 285.043H33.8938L35.681 282.489V275.596Z" fill="#1E1E1E"/>
<line x1="368" y1="105" x2="378" y2="105" stroke="#2B2B2B" stroke-width="2"/>
<line x1="345" y1="327" x2="345" y2="337" stroke="#2B2B2B" stroke-width="2"/>
<rect x="403" y="546" width="3" height="3" fill="#2B2B2B"/>
<line x1="94" y1="234.5" x2="332" y2="234.5" stroke="#2B2B2B"/>
<rect x="322" y="225" width="10" height="10" fill="#2B2B2B"/>
<line x1="21" y1="118" x2="31" y2="118" stroke="#2B2B2B" stroke-width="2"/>
<line x1="21" y1="348" x2="31" y2="348" stroke="#2B2B2B" stroke-width="2"/>
<rect x="21" y="419" width="10" height="10" fill="#2B2B2B"/>
<rect x="21" y="435" width="3" height="3" fill="#2B2B2B"/>
<rect x="21" y="445" width="3" height="3" fill="#2B2B2B"/>
<line x1="24" y1="677" x2="34" y2="677" stroke="#2B2B2B" stroke-width="2"/>
<rect x="24" y="494" width="3" height="3" fill="#2B2B2B"/>
<mask id="path-15-outside-1_140_101" maskUnits="userSpaceOnUse" x="337" y="29" width="82" height="819" fill="black">
<rect fill="white" x="337" y="29" width="82" height="819"/>
<path d="M342.536 33.608H354.728C356.008 33.608 357.064 34.12 357.896 35.144L392.456 80.072V34.76C392.456 34.44 392.552 34.184 392.744 33.992C393 33.736 393.288 33.608 393.608 33.608H403.496C403.816 33.608 404.072 33.736 404.264 33.992C404.52 34.184 404.648 34.44 404.648 34.76V99.656C404.648 100.424 404.264 100.808 403.496 100.808H394.376C393.096 100.808 392.04 100.296 391.208 99.272L341.864 34.952C341.608 34.696 341.576 34.408 341.768 34.088C341.96 33.768 342.216 33.608 342.536 33.608ZM348.008 205.848V140.952C348.008 140.632 348.104 140.376 348.296 140.184C348.552 139.928 348.84 139.8 349.16 139.8H358.28C359.56 139.8 360.616 140.312 361.448 141.336L410.888 205.656C411.08 205.976 411.08 206.296 410.888 206.616C410.76 206.872 410.504 207 410.12 207H397.928C396.648 207 395.592 206.488 394.76 205.464L378.152 183.768L361.448 205.464C360.616 206.488 359.56 207 358.28 207H349.16C348.84 207 348.552 206.904 348.296 206.712C348.104 206.456 348.008 206.168 348.008 205.848ZM360.296 160.536V186.264L370.184 173.4L360.296 160.536ZM349.16 245.8H359.048C359.88 245.8 360.296 246.184 360.296 246.952V300.808H387.176C387.56 300.808 387.816 300.968 387.944 301.288C388.136 301.608 388.136 301.896 387.944 302.152L380.744 311.464C379.912 312.488 378.888 313 377.672 313H349.16C348.84 313 348.552 312.904 348.296 312.712C348.104 312.456 348.008 312.168 348.008 311.848V246.952C348.008 246.632 348.104 246.376 348.296 246.184C348.552 245.928 348.84 245.8 349.16 245.8ZM345.32 385.112C345.32 380.184 346.216 375.608 348.008 371.384C349.864 367.096 352.328 363.416 355.4 360.344C358.536 357.208 362.216 354.776 366.44 353.048C370.664 351.256 375.208 350.392 380.072 350.456C384.936 350.52 389.48 351.48 393.704 353.336C397.928 355.192 401.576 357.72 404.648 360.92C407.784 364.12 410.248 367.864 412.04 372.152C413.832 376.376 414.696 380.888 414.632 385.688C414.568 390.552 413.608 395.096 411.752 399.32C409.896 403.544 407.368 407.224 404.168 410.36C401.032 413.496 397.352 415.96 393.128 417.752C388.904 419.48 384.36 420.344 379.496 420.344C374.696 420.344 370.184 419.448 365.96 417.656C361.8 415.8 358.184 413.304 355.112 410.168C352.04 406.968 349.64 403.224 347.912 398.936C346.184 394.648 345.32 390.04 345.32 385.112ZM357.608 385.592C357.608 388.728 358.216 391.704 359.432 394.52C360.648 397.336 362.28 399.8 364.328 401.912C366.376 404.024 368.744 405.688 371.432 406.904C374.12 408.12 377 408.728 380.072 408.728C383.08 408.664 385.928 407.992 388.616 406.712C391.304 405.432 393.64 403.736 395.624 401.624C397.672 399.448 399.272 396.952 400.424 394.136C401.576 391.256 402.12 388.248 402.056 385.112C402.056 381.976 401.448 379 400.232 376.184C399.016 373.368 397.384 370.936 395.336 368.888C393.288 366.776 390.888 365.112 388.136 363.896C385.448 362.68 382.6 362.072 379.592 362.072C376.584 362.136 373.736 362.808 371.048 364.088C368.36 365.304 366.024 367 364.04 369.176C362.056 371.288 360.488 373.752 359.336 376.568C358.184 379.384 357.608 382.392 357.608 385.592ZM348.008 458.76C348.008 458.44 348.104 458.184 348.296 457.992C348.552 457.736 348.84 457.608 349.16 457.608H399.848C400.168 457.608 400.424 457.736 400.616 457.992C400.872 458.184 401 458.44 401 458.76V472.872C401 473.768 400.712 474.568 400.136 475.272L384.968 495.144L406.664 523.464C406.856 523.784 406.856 524.104 406.664 524.424C406.536 524.68 406.312 524.808 405.992 524.808H393.8C392.52 524.808 391.464 524.296 390.632 523.272L369.608 495.912C369.16 495.4 369.16 494.92 369.608 494.472L388.52 469.8H360.296V523.656C360.296 524.424 359.88 524.808 359.048 524.808H349.16C348.84 524.808 348.552 524.712 348.296 524.52C348.104 524.264 348.008 523.976 348.008 523.656V458.76ZM348.008 629.848V564.952C348.008 564.632 348.104 564.376 348.296 564.184C348.552 563.928 348.84 563.8 349.16 563.8H358.28C359.56 563.8 360.616 564.312 361.448 565.336L410.888 629.656C411.08 629.976 411.08 630.296 410.888 630.616C410.76 630.872 410.504 631 410.12 631H397.928C396.648 631 395.592 630.488 394.76 629.464L378.152 607.768L361.448 629.464C360.616 630.488 359.56 631 358.28 631H349.16C348.84 631 348.552 630.904 348.296 630.712C348.104 630.456 348.008 630.168 348.008 629.848ZM360.296 584.536V610.264L370.184 597.4L360.296 584.536ZM348.008 735.848V670.952C348.008 670.632 348.104 670.376 348.296 670.184C348.552 669.928 348.84 669.8 349.16 669.8H358.28C359.56 669.8 360.616 670.312 361.448 671.336L396.008 716.264V670.952C396.008 670.184 396.392 669.8 397.16 669.8H407.048C407.816 669.8 408.2 670.184 408.2 670.952V735.848C408.2 736.616 407.816 737 407.048 737H397.928C396.648 737 395.592 736.488 394.76 735.464L360.296 690.536V735.848C360.296 736.616 359.88 737 359.048 737H349.16C348.84 737 348.552 736.904 348.296 736.712C348.104 736.456 348.008 736.168 348.008 735.848ZM344.648 776.76C344.648 776.44 344.744 776.184 344.936 775.992C345.192 775.736 345.48 775.608 345.8 775.608H387.464C388.744 775.608 389.8 776.12 390.632 777.144L397.736 786.456C397.992 786.776 398.024 787.096 397.832 787.416C397.704 787.672 397.448 787.8 397.064 787.8H375.656V841.656C375.656 842.424 375.272 842.808 374.504 842.808H364.616C363.848 842.808 363.464 842.424 363.464 841.656V787.8H345.8C345.48 787.8 345.192 787.704 344.936 787.512C344.744 787.256 344.648 786.968 344.648 786.648V776.76Z"/>
</mask>
<path d="M357.896 35.144L361.243 32.5697L361.208 32.5251L361.173 32.4815L357.896 35.144ZM392.456 80.072L389.109 82.6463L396.678 92.4858V80.072H392.456ZM392.744 33.992L395.73 36.9776L395.73 36.9776L392.744 33.992ZM404.264 33.992L400.886 36.5253L401.248 37.0079L401.731 37.3698L404.264 33.992ZM391.208 99.272L387.858 101.842L387.894 101.889L387.931 101.935L391.208 99.272ZM341.864 34.952L345.214 32.382L345.045 32.1623L344.85 31.9664L341.864 34.952ZM341.768 34.088L338.147 31.9157L341.768 34.088ZM342.536 37.8302H354.728V29.3858H342.536V37.8302ZM354.728 37.8302C354.765 37.8302 354.767 37.8338 354.742 37.8283C354.716 37.8226 354.678 37.8108 354.638 37.7912C354.598 37.7717 354.573 37.7535 354.565 37.7472C354.559 37.7419 354.578 37.7565 354.619 37.8065L361.173 32.4815C359.568 30.5059 357.324 29.3858 354.728 29.3858V37.8302ZM354.549 37.7183L389.109 82.6463L395.803 77.4977L361.243 32.5697L354.549 37.7183ZM396.678 80.072V34.76H388.234V80.072H396.678ZM396.678 34.76C396.678 35.0216 396.639 35.3912 396.481 35.8105C396.319 36.2429 396.063 36.6444 395.73 36.9776L389.758 31.0064C388.634 32.1304 388.234 33.5354 388.234 34.76H396.678ZM395.73 36.9776C395.545 37.1622 395.261 37.387 394.867 37.5623C394.462 37.742 394.029 37.8302 393.608 37.8302V29.3858C392.017 29.3858 390.693 30.072 389.758 31.0064L395.73 36.9776ZM393.608 37.8302H403.496V29.3858H393.608V37.8302ZM403.496 37.8302C403.079 37.8302 402.564 37.7427 402.04 37.4805C401.515 37.2183 401.137 36.8592 400.886 36.5253L407.642 31.4587C406.652 30.1395 405.145 29.3858 403.496 29.3858V37.8302ZM401.731 37.3698C401.397 37.1194 401.038 36.7407 400.776 36.2162C400.513 35.6918 400.426 35.1773 400.426 34.76H408.87C408.87 33.111 408.117 31.6036 406.797 30.6142L401.731 37.3698ZM400.426 34.76V99.656H408.87V34.76H400.426ZM400.426 99.656C400.426 99.3892 400.495 98.4135 401.374 97.5344C402.254 96.6553 403.229 96.5858 403.496 96.5858V105.03C404.531 105.03 406.082 104.769 407.346 103.506C408.609 102.242 408.87 100.691 408.87 99.656H400.426ZM403.496 96.5858H394.376V105.03H403.496V96.5858ZM394.376 96.5858C394.339 96.5858 394.337 96.5822 394.362 96.5877C394.388 96.5934 394.426 96.6052 394.466 96.6248C394.506 96.6443 394.531 96.6625 394.539 96.6688C394.545 96.6741 394.526 96.6595 394.485 96.6095L387.931 101.935C389.536 103.91 391.78 105.03 394.376 105.03V96.5858ZM394.558 96.702L345.214 32.382L338.514 37.522L387.858 101.842L394.558 96.702ZM344.85 31.9664C345.226 32.3433 345.73 33.0512 345.844 34.0777C345.957 35.0874 345.63 35.8573 345.389 36.2603L338.147 31.9157C337.714 32.6387 337.307 33.7126 337.452 35.0103C337.598 36.3248 338.246 37.3046 338.878 37.9376L344.85 31.9664ZM345.389 36.2603C345.221 36.5397 344.897 36.9611 344.342 37.3084C343.758 37.6734 343.118 37.8302 342.536 37.8302V29.3858C340.463 29.3858 338.953 30.5739 338.147 31.9157L345.389 36.2603ZM348.296 140.184L345.31 137.198L345.31 137.198L348.296 140.184ZM361.448 141.336L364.796 138.763L364.761 138.718L364.725 138.674L361.448 141.336ZM410.888 205.656L414.509 203.484L414.384 203.275L414.236 203.083L410.888 205.656ZM410.888 206.616L407.267 204.444L407.184 204.583L407.112 204.728L410.888 206.616ZM394.76 205.464L391.407 208.03L391.444 208.079L391.483 208.127L394.76 205.464ZM378.152 183.768L381.505 181.202L378.162 176.834L374.806 181.192L378.152 183.768ZM361.448 205.464L364.725 208.127L364.76 208.084L364.794 208.04L361.448 205.464ZM348.296 206.712L344.918 209.245L345.28 209.728L345.763 210.09L348.296 206.712ZM360.296 160.536L363.644 157.963L356.074 148.115V160.536H360.296ZM360.296 186.264H356.074V198.685L363.644 188.837L360.296 186.264ZM370.184 173.4L373.532 175.973L375.509 173.4L373.532 170.827L370.184 173.4ZM352.23 205.848V140.952H343.786V205.848H352.23ZM352.23 140.952C352.23 141.214 352.191 141.583 352.033 142.003C351.871 142.435 351.615 142.836 351.282 143.17L345.31 137.198C344.186 138.322 343.786 139.727 343.786 140.952H352.23ZM351.282 143.17C351.097 143.354 350.813 143.579 350.419 143.754C350.014 143.934 349.581 144.022 349.16 144.022V135.578C347.569 135.578 346.245 136.264 345.31 137.198L351.282 143.17ZM349.16 144.022H358.28V135.578H349.16V144.022ZM358.28 144.022C358.317 144.022 358.319 144.026 358.294 144.02C358.268 144.015 358.23 144.003 358.19 143.983C358.15 143.964 358.125 143.945 358.117 143.939C358.111 143.934 358.13 143.949 358.171 143.998L364.725 138.674C363.12 136.698 360.876 135.578 358.28 135.578V144.022ZM358.1 143.909L407.54 208.229L414.236 203.083L364.796 138.763L358.1 143.909ZM407.267 207.828C407.036 207.443 406.81 206.861 406.81 206.136C406.81 205.411 407.036 204.829 407.267 204.444L414.509 208.788C414.932 208.083 415.254 207.181 415.254 206.136C415.254 205.091 414.932 204.189 414.509 203.484L407.267 207.828ZM407.112 204.728C407.456 204.039 408.023 203.472 408.712 203.128C409.335 202.816 409.87 202.778 410.12 202.778V211.222C411.466 211.222 413.575 210.684 414.664 208.504L407.112 204.728ZM410.12 202.778H397.928V211.222H410.12V202.778ZM397.928 202.778C397.891 202.778 397.889 202.774 397.914 202.78C397.94 202.785 397.978 202.797 398.018 202.817C398.058 202.836 398.083 202.855 398.091 202.861C398.097 202.866 398.078 202.851 398.037 202.801L391.483 208.127C393.088 210.102 395.332 211.222 397.928 211.222V202.778ZM398.113 202.898L381.505 181.202L374.799 186.334L391.407 208.03L398.113 202.898ZM374.806 181.192L358.102 202.888L364.794 208.04L381.498 186.344L374.806 181.192ZM358.171 202.801C358.13 202.851 358.111 202.866 358.117 202.861C358.125 202.855 358.15 202.836 358.19 202.817C358.23 202.797 358.268 202.785 358.294 202.78C358.319 202.774 358.317 202.778 358.28 202.778V211.222C360.876 211.222 363.12 210.102 364.725 208.127L358.171 202.801ZM358.28 202.778H349.16V211.222H358.28V202.778ZM349.16 202.778C349.429 202.778 349.73 202.819 350.039 202.922C350.349 203.026 350.614 203.173 350.829 203.334L345.763 210.09C346.75 210.83 347.926 211.222 349.16 211.222V202.778ZM351.674 204.179C351.835 204.394 351.982 204.659 352.086 204.969C352.189 205.278 352.23 205.579 352.23 205.848H343.786C343.786 207.082 344.178 208.258 344.918 209.245L351.674 204.179ZM356.074 160.536V186.264H364.518V160.536H356.074ZM363.644 188.837L373.532 175.973L366.836 170.827L356.948 183.691L363.644 188.837ZM373.532 170.827L363.644 157.963L356.948 163.109L366.836 175.973L373.532 170.827ZM360.296 300.808H356.074V305.03H360.296V300.808ZM387.944 301.288L384.024 302.856L384.149 303.17L384.323 303.46L387.944 301.288ZM387.944 302.152L391.284 304.735L391.303 304.71L391.322 304.685L387.944 302.152ZM380.744 311.464L384.021 314.126L384.053 314.087L384.084 314.047L380.744 311.464ZM348.296 312.712L344.918 315.245L345.28 315.728L345.763 316.09L348.296 312.712ZM348.296 246.184L345.31 243.198H345.31L348.296 246.184ZM349.16 250.022H359.048V241.578H349.16V250.022ZM359.048 250.022C358.893 250.022 357.99 249.994 357.12 249.19C356.186 248.328 356.074 247.309 356.074 246.952H364.518C364.518 245.827 364.198 244.232 362.848 242.985C361.562 241.798 360.035 241.578 359.048 241.578V250.022ZM356.074 246.952V300.808H364.518V246.952H356.074ZM360.296 305.03H387.176V296.586H360.296V305.03ZM387.176 305.03C386.79 305.03 386.121 304.948 385.418 304.508C384.681 304.048 384.244 303.406 384.024 302.856L391.864 299.72C391.516 298.85 390.887 297.968 389.894 297.348C388.935 296.748 387.946 296.586 387.176 296.586V305.03ZM384.323 303.46C384.14 303.154 383.866 302.56 383.866 301.744C383.866 300.873 384.178 300.136 384.566 299.619L391.322 304.685C391.902 303.912 392.31 302.903 392.31 301.744C392.31 300.64 391.94 299.742 391.565 299.116L384.323 303.46ZM384.604 299.569L377.404 308.881L384.084 314.047L391.284 304.735L384.604 299.569ZM377.467 308.801C377.418 308.862 377.391 308.884 377.392 308.883C377.394 308.881 377.418 308.862 377.464 308.84C377.51 308.816 377.56 308.799 377.607 308.788C377.653 308.777 377.678 308.778 377.672 308.778V317.222C380.278 317.222 382.465 316.041 384.021 314.126L377.467 308.801ZM377.672 308.778H349.16V317.222H377.672V308.778ZM349.16 308.778C349.429 308.778 349.73 308.819 350.039 308.922C350.349 309.026 350.614 309.173 350.829 309.334L345.763 316.09C346.75 316.83 347.926 317.222 349.16 317.222V308.778ZM351.674 310.179C351.835 310.394 351.982 310.659 352.086 310.969C352.189 311.278 352.23 311.579 352.23 311.848H343.786C343.786 313.082 344.178 314.258 344.918 315.245L351.674 310.179ZM352.23 311.848V246.952H343.786V311.848H352.23ZM352.23 246.952C352.23 247.214 352.191 247.583 352.033 248.003C351.871 248.435 351.615 248.836 351.282 249.17L345.31 243.198C344.186 244.322 343.786 245.727 343.786 246.952H352.23ZM351.282 249.17C351.097 249.354 350.813 249.579 350.419 249.754C350.014 249.934 349.581 250.022 349.16 250.022V241.578C347.569 241.578 346.245 242.264 345.31 243.198L351.282 249.17ZM348.008 371.384L344.133 369.707L344.127 369.721L344.121 369.735L348.008 371.384ZM355.4 360.344L358.386 363.33H358.386L355.4 360.344ZM366.44 353.048L368.039 356.956L368.064 356.946L368.089 356.935L366.44 353.048ZM380.072 350.456L380.016 354.678L380.072 350.456ZM393.704 353.336L392.006 357.202L393.704 353.336ZM404.648 360.92L401.602 363.844L401.617 363.86L401.632 363.875L404.648 360.92ZM412.04 372.152L408.144 373.78L408.149 373.791L408.153 373.801L412.04 372.152ZM414.632 385.688L410.41 385.632L410.41 385.632L414.632 385.688ZM411.752 399.32L415.618 401.018L411.752 399.32ZM404.168 410.36L401.213 407.344L401.198 407.359L401.182 407.374L404.168 410.36ZM393.128 417.752L394.727 421.66L394.752 421.65L394.777 421.639L393.128 417.752ZM365.96 417.656L364.24 421.512L364.275 421.528L364.311 421.543L365.96 417.656ZM355.112 410.168L352.066 413.092L352.081 413.107L352.096 413.123L355.112 410.168ZM347.912 398.936L343.996 400.514H343.996L347.912 398.936ZM359.432 394.52L355.556 396.194L359.432 394.52ZM364.328 401.912L367.359 398.973L364.328 401.912ZM371.432 406.904L369.692 410.751L369.692 410.751L371.432 406.904ZM380.072 408.728V412.95H380.117L380.162 412.949L380.072 408.728ZM388.616 406.712L386.801 402.9L388.616 406.712ZM395.624 401.624L392.549 398.73L392.547 398.733L395.624 401.624ZM400.424 394.136L404.332 395.735L404.338 395.719L404.344 395.704L400.424 394.136ZM402.056 385.112H397.834V385.155L397.835 385.198L402.056 385.112ZM395.336 368.888L392.305 371.827L392.327 371.851L392.35 371.874L395.336 368.888ZM388.136 363.896L386.396 367.743L386.413 367.751L386.43 367.758L388.136 363.896ZM379.592 362.072V357.85H379.547L379.502 357.851L379.592 362.072ZM371.048 364.088L372.788 367.935L372.826 367.918L372.863 367.9L371.048 364.088ZM364.04 369.176L367.117 372.067L367.139 372.044L367.16 372.021L364.04 369.176ZM359.336 376.568L363.244 378.167L359.336 376.568ZM349.542 385.112C349.542 380.708 350.34 376.698 351.895 373.033L344.121 369.735C342.092 374.518 341.098 379.66 341.098 385.112H349.542ZM351.883 373.061C353.544 369.224 355.717 365.998 358.386 363.33L352.414 357.358C348.939 360.834 346.184 364.968 344.133 369.707L351.883 373.061ZM358.386 363.33C361.113 360.602 364.318 358.478 368.039 356.956L364.841 349.14C360.114 351.074 355.959 353.814 352.414 357.358L358.386 363.33ZM368.089 356.935C371.742 355.385 375.702 354.621 380.016 354.678L380.128 346.234C374.714 346.163 369.586 347.127 364.791 349.161L368.089 356.935ZM380.016 354.678C384.346 354.735 388.328 355.585 392.006 357.202L395.402 349.47C390.632 347.375 385.526 346.305 380.128 346.234L380.016 354.678ZM392.006 357.202C395.744 358.844 398.929 361.059 401.602 363.844L407.694 357.996C404.223 354.381 400.112 351.54 395.402 349.47L392.006 357.202ZM401.632 363.875C404.38 366.678 406.551 369.968 408.144 373.78L415.936 370.524C413.945 365.76 411.188 361.562 407.664 357.965L401.632 363.875ZM408.153 373.801C409.706 377.461 410.467 381.39 410.41 385.632L418.854 385.744C418.925 380.386 417.958 375.291 415.927 370.503L408.153 373.801ZM410.41 385.632C410.353 389.962 409.503 393.944 407.886 397.622L415.618 401.018C417.713 396.248 418.783 391.142 418.854 385.744L410.41 385.632ZM407.886 397.622C406.241 401.367 404.017 404.597 401.213 407.344L407.123 413.376C410.719 409.851 413.551 405.721 415.618 401.018L407.886 397.622ZM401.182 407.374C398.443 410.114 395.221 412.277 391.479 413.865L394.777 421.639C399.483 419.643 403.621 416.878 407.154 413.346L401.182 407.374ZM391.529 413.844C387.845 415.351 383.848 416.122 379.496 416.122V424.566C384.872 424.566 389.963 423.609 394.727 421.66L391.529 413.844ZM379.496 416.122C375.236 416.122 371.287 415.33 367.609 413.769L364.311 421.543C369.081 423.566 374.156 424.566 379.496 424.566V416.122ZM367.68 413.8C363.987 412.152 360.815 409.956 358.128 407.213L352.096 413.123C355.553 416.652 359.613 419.448 364.24 421.512L367.68 413.8ZM358.158 407.244C355.475 404.449 353.363 401.167 351.828 397.358L343.996 400.514C345.917 405.281 348.605 409.487 352.066 413.092L358.158 407.244ZM351.828 397.358C350.315 393.604 349.542 389.535 349.542 385.112H341.098C341.098 390.545 342.053 395.692 343.996 400.514L351.828 397.358ZM353.386 385.592C353.386 389.29 354.106 392.837 355.556 396.194L363.308 392.846C362.326 390.571 361.83 388.166 361.83 385.592H353.386ZM355.556 396.194C356.966 399.459 358.878 402.357 361.297 404.851L367.359 398.973C365.682 397.243 364.33 395.213 363.308 392.846L355.556 396.194ZM361.297 404.851C363.715 407.345 366.522 409.317 369.692 410.751L373.172 403.057C370.966 402.059 369.037 400.703 367.359 398.973L361.297 404.851ZM369.692 410.751C372.949 412.225 376.425 412.95 380.072 412.95V404.506C377.575 404.506 375.291 404.015 373.172 403.057L369.692 410.751ZM380.162 412.949C383.761 412.873 387.198 412.064 390.431 410.524L386.801 402.9C384.658 403.92 382.399 404.455 379.982 404.507L380.162 412.949ZM390.431 410.524C393.58 409.025 396.348 407.02 398.701 404.515L392.547 398.733C390.932 400.452 389.028 401.839 386.801 402.9L390.431 410.524ZM398.699 404.518C401.108 401.958 402.987 399.021 404.332 395.735L396.516 392.537C395.557 394.883 394.236 396.938 392.549 398.73L398.699 404.518ZM404.344 395.704C405.709 392.292 406.353 388.721 406.277 385.026L397.835 385.198C397.887 387.775 397.443 390.22 396.504 392.568L404.344 395.704ZM406.278 385.112C406.278 381.414 405.558 377.867 404.108 374.51L396.356 377.858C397.338 380.133 397.834 382.538 397.834 385.112H406.278ZM404.108 374.51C402.694 371.234 400.769 368.349 398.322 365.902L392.35 371.874C393.999 373.523 395.339 375.502 396.356 377.858L404.108 374.51ZM398.367 365.949C395.932 363.438 393.08 361.464 389.842 360.034L386.43 367.758C388.696 368.76 390.644 370.114 392.305 371.827L398.367 365.949ZM389.876 360.049C386.631 358.581 383.188 357.85 379.592 357.85V366.294C382.012 366.294 384.265 366.779 386.396 367.743L389.876 360.049ZM379.502 357.851C375.903 357.927 372.466 358.736 369.233 360.276L372.863 367.9C375.006 366.88 377.265 366.345 379.682 366.293L379.502 357.851ZM369.308 360.241C366.097 361.693 363.292 363.73 360.92 366.331L367.16 372.021C368.756 370.27 370.623 368.915 372.788 367.935L369.308 360.241ZM360.963 366.285C358.608 368.792 356.766 371.7 355.428 374.969L363.244 378.167C364.21 375.804 365.504 373.784 367.117 372.067L360.963 366.285ZM355.428 374.969C354.058 378.319 353.386 381.873 353.386 385.592H361.83C361.83 382.911 362.31 380.449 363.244 378.167L355.428 374.969ZM348.296 457.992L351.282 460.978H351.282L348.296 457.992ZM400.616 457.992L397.238 460.525L397.6 461.008L398.083 461.37L400.616 457.992ZM400.136 475.272L396.868 472.598L396.823 472.654L396.78 472.71L400.136 475.272ZM384.968 495.144L381.612 492.582L379.653 495.149L381.616 497.712L384.968 495.144ZM406.664 523.464L410.285 521.292L410.161 521.086L410.016 520.896L406.664 523.464ZM406.664 524.424L403.043 522.252L402.96 522.391L402.888 522.536L406.664 524.424ZM390.632 523.272L387.284 525.845L387.319 525.89L387.355 525.935L390.632 523.272ZM369.608 495.912L372.956 493.339L372.874 493.233L372.786 493.132L369.608 495.912ZM369.608 494.472L372.594 497.458L372.79 497.261L372.959 497.041L369.608 494.472ZM388.52 469.8L391.871 472.369L397.076 465.578H388.52V469.8ZM360.296 469.8V465.578H356.074V469.8H360.296ZM348.296 524.52L344.918 527.053L345.28 527.536L345.763 527.898L348.296 524.52ZM352.23 458.76C352.23 459.022 352.191 459.391 352.033 459.811C351.871 460.243 351.615 460.644 351.282 460.978L345.31 455.006C344.186 456.13 343.786 457.535 343.786 458.76H352.23ZM351.282 460.978C351.097 461.162 350.813 461.387 350.419 461.562C350.014 461.742 349.581 461.83 349.16 461.83V453.386C347.569 453.386 346.245 454.072 345.31 455.006L351.282 460.978ZM349.16 461.83H399.848V453.386H349.16V461.83ZM399.848 461.83C399.431 461.83 398.916 461.743 398.392 461.48C397.867 461.218 397.489 460.859 397.238 460.525L403.994 455.459C403.004 454.139 401.497 453.386 399.848 453.386V461.83ZM398.083 461.37C397.749 461.119 397.39 460.741 397.128 460.216C396.865 459.692 396.778 459.177 396.778 458.76H405.222C405.222 457.111 404.469 455.604 403.149 454.614L398.083 461.37ZM396.778 458.76V472.872H405.222V458.76H396.778ZM396.778 472.872C396.778 472.859 396.781 472.797 396.811 472.714C396.841 472.632 396.874 472.592 396.868 472.598L403.404 477.946C404.587 476.5 405.222 474.759 405.222 472.872H396.778ZM396.78 472.71L381.612 492.582L388.324 497.706L403.492 477.834L396.78 472.71ZM381.616 497.712L403.312 526.032L410.016 520.896L388.32 492.576L381.616 497.712ZM403.043 525.636C402.812 525.251 402.586 524.669 402.586 523.944C402.586 523.219 402.812 522.637 403.043 522.252L410.285 526.596C410.708 525.891 411.03 524.989 411.03 523.944C411.03 522.899 410.708 521.997 410.285 521.292L403.043 525.636ZM402.888 522.536C403.154 522.003 403.615 521.44 404.305 521.046C404.967 520.668 405.592 520.586 405.992 520.586V529.03C406.712 529.03 407.609 528.884 408.495 528.378C409.409 527.856 410.046 527.101 410.44 526.312L402.888 522.536ZM405.992 520.586H393.8V529.03H405.992V520.586ZM393.8 520.586C393.763 520.586 393.761 520.582 393.786 520.588C393.812 520.593 393.85 520.605 393.89 520.625C393.93 520.644 393.955 520.663 393.963 520.669C393.969 520.674 393.95 520.659 393.909 520.609L387.355 525.935C388.96 527.91 391.204 529.03 393.8 529.03V520.586ZM393.98 520.699L372.956 493.339L366.26 498.485L387.284 525.845L393.98 520.699ZM372.786 493.132C372.957 493.327 373.494 494.03 373.494 495.168C373.494 496.371 372.899 497.152 372.594 497.458L366.622 491.486C365.869 492.24 365.05 493.485 365.05 495.168C365.05 496.786 365.811 497.985 366.43 498.692L372.786 493.132ZM372.959 497.041L391.871 472.369L385.169 467.231L366.257 491.903L372.959 497.041ZM388.52 465.578H360.296V474.022H388.52V465.578ZM356.074 469.8V523.656H364.518V469.8H356.074ZM356.074 523.656C356.074 523.299 356.186 522.28 357.12 521.418C357.99 520.614 358.893 520.586 359.048 520.586V529.03C360.035 529.03 361.562 528.81 362.848 527.622C364.198 526.376 364.518 524.781 364.518 523.656H356.074ZM359.048 520.586H349.16V529.03H359.048V520.586ZM349.16 520.586C349.429 520.586 349.73 520.627 350.039 520.73C350.349 520.834 350.614 520.981 350.829 521.142L345.763 527.898C346.75 528.638 347.926 529.03 349.16 529.03V520.586ZM351.674 521.987C351.835 522.202 351.982 522.467 352.086 522.777C352.189 523.086 352.23 523.387 352.23 523.656H343.786C343.786 524.89 344.178 526.066 344.918 527.053L351.674 521.987ZM352.23 523.656V458.76H343.786V523.656H352.23ZM348.296 564.184L345.31 561.198H345.31L348.296 564.184ZM361.448 565.336L364.796 562.763L364.761 562.718L364.725 562.674L361.448 565.336ZM410.888 629.656L414.509 627.484L414.384 627.275L414.236 627.083L410.888 629.656ZM410.888 630.616L407.267 628.444L407.184 628.583L407.112 628.728L410.888 630.616ZM394.76 629.464L391.407 632.03L391.444 632.079L391.483 632.127L394.76 629.464ZM378.152 607.768L381.505 605.202L378.162 600.834L374.806 605.192L378.152 607.768ZM361.448 629.464L364.725 632.127L364.76 632.084L364.794 632.04L361.448 629.464ZM348.296 630.712L344.918 633.245L345.28 633.728L345.763 634.09L348.296 630.712ZM360.296 584.536L363.644 581.963L356.074 572.115V584.536H360.296ZM360.296 610.264H356.074V622.685L363.644 612.837L360.296 610.264ZM370.184 597.4L373.532 599.973L375.509 597.4L373.532 594.827L370.184 597.4ZM352.23 629.848V564.952H343.786V629.848H352.23ZM352.23 564.952C352.23 565.214 352.191 565.583 352.033 566.003C351.871 566.435 351.615 566.836 351.282 567.17L345.31 561.198C344.186 562.322 343.786 563.727 343.786 564.952H352.23ZM351.282 567.17C351.097 567.354 350.813 567.579 350.419 567.754C350.014 567.934 349.581 568.022 349.16 568.022V559.578C347.569 559.578 346.245 560.264 345.31 561.198L351.282 567.17ZM349.16 568.022H358.28V559.578H349.16V568.022ZM358.28 568.022C358.317 568.022 358.319 568.026 358.294 568.02C358.268 568.015 358.23 568.003 358.19 567.983C358.15 567.964 358.125 567.945 358.117 567.939C358.111 567.934 358.13 567.949 358.171 567.998L364.725 562.674C363.12 560.698 360.876 559.578 358.28 559.578V568.022ZM358.1 567.909L407.54 632.229L414.236 627.083L364.796 562.763L358.1 567.909ZM407.267 631.828C407.036 631.443 406.81 630.861 406.81 630.136C406.81 629.411 407.036 628.829 407.267 628.444L414.509 632.788C414.932 632.083 415.254 631.181 415.254 630.136C415.254 629.091 414.932 628.189 414.509 627.484L407.267 631.828ZM407.112 628.728C407.456 628.039 408.023 627.472 408.712 627.128C409.335 626.816 409.87 626.778 410.12 626.778V635.222C411.466 635.222 413.575 634.684 414.664 632.504L407.112 628.728ZM410.12 626.778H397.928V635.222H410.12V626.778ZM397.928 626.778C397.891 626.778 397.889 626.774 397.914 626.78C397.94 626.785 397.978 626.797 398.018 626.817C398.058 626.836 398.083 626.855 398.091 626.861C398.097 626.866 398.078 626.851 398.037 626.802L391.483 632.127C393.088 634.102 395.332 635.222 397.928 635.222V626.778ZM398.113 626.898L381.505 605.202L374.799 610.334L391.407 632.03L398.113 626.898ZM374.806 605.192L358.102 626.888L364.794 632.04L381.498 610.344L374.806 605.192ZM358.171 626.802C358.13 626.851 358.111 626.866 358.117 626.861C358.125 626.855 358.15 626.836 358.19 626.817C358.23 626.797 358.268 626.785 358.294 626.78C358.319 626.774 358.317 626.778 358.28 626.778V635.222C360.876 635.222 363.12 634.102 364.725 632.127L358.171 626.802ZM358.28 626.778H349.16V635.222H358.28V626.778ZM349.16 626.778C349.429 626.778 349.73 626.819 350.039 626.922C350.349 627.026 350.614 627.173 350.829 627.334L345.763 634.09C346.75 634.83 347.926 635.222 349.16 635.222V626.778ZM351.674 628.179C351.835 628.394 351.982 628.659 352.086 628.969C352.189 629.278 352.23 629.579 352.23 629.848H343.786C343.786 631.082 344.178 632.258 344.918 633.245L351.674 628.179ZM356.074 584.536V610.264H364.518V584.536H356.074ZM363.644 612.837L373.532 599.973L366.836 594.827L356.948 607.691L363.644 612.837ZM373.532 594.827L363.644 581.963L356.948 587.109L366.836 599.973L373.532 594.827ZM348.296 670.184L345.31 667.198H345.31L348.296 670.184ZM361.448 671.336L364.795 668.762L364.76 668.717L364.725 668.674L361.448 671.336ZM396.008 716.264L392.661 718.838L400.23 728.678V716.264H396.008ZM394.76 735.464L391.41 738.034L391.446 738.081L391.483 738.127L394.76 735.464ZM360.296 690.536L363.646 687.966L356.074 678.095V690.536H360.296ZM348.296 736.712L344.918 739.245L345.28 739.728L345.763 740.09L348.296 736.712ZM352.23 735.848V670.952H343.786V735.848H352.23ZM352.23 670.952C352.23 671.214 352.191 671.583 352.033 672.003C351.871 672.435 351.615 672.836 351.282 673.17L345.31 667.198C344.186 668.322 343.786 669.727 343.786 670.952H352.23ZM351.282 673.17C351.097 673.354 350.813 673.579 350.419 673.754C350.014 673.934 349.581 674.022 349.16 674.022V665.578C347.569 665.578 346.245 666.264 345.31 667.198L351.282 673.17ZM349.16 674.022H358.28V665.578H349.16V674.022ZM358.28 674.022C358.317 674.022 358.319 674.026 358.294 674.02C358.268 674.015 358.23 674.003 358.19 673.983C358.15 673.964 358.125 673.945 358.117 673.939C358.111 673.934 358.13 673.949 358.171 673.998L364.725 668.674C363.12 666.698 360.876 665.578 358.28 665.578V674.022ZM358.101 673.91L392.661 718.838L399.355 713.69L364.795 668.762L358.101 673.91ZM400.23 716.264V670.952H391.786V716.264H400.23ZM400.23 670.952C400.23 671.219 400.161 672.194 399.282 673.074C398.402 673.953 397.427 674.022 397.16 674.022V665.578C396.125 665.578 394.574 665.839 393.31 667.102C392.047 668.366 391.786 669.917 391.786 670.952H400.23ZM397.16 674.022H407.048V665.578H397.16V674.022ZM407.048 674.022C406.781 674.022 405.806 673.953 404.926 673.074C404.047 672.194 403.978 671.219 403.978 670.952H412.422C412.422 669.917 412.161 668.366 410.898 667.102C409.634 665.839 408.083 665.578 407.048 665.578V674.022ZM403.978 670.952V735.848H412.422V670.952H403.978ZM403.978 735.848C403.978 735.581 404.047 734.606 404.926 733.726C405.806 732.847 406.781 732.778 407.048 732.778V741.222C408.083 741.222 409.634 740.961 410.898 739.698C412.161 738.434 412.422 736.883 412.422 735.848H403.978ZM407.048 732.778H397.928V741.222H407.048V732.778ZM397.928 732.778C397.891 732.778 397.889 732.774 397.914 732.78C397.94 732.785 397.978 732.797 398.018 732.817C398.058 732.836 398.083 732.855 398.091 732.861C398.097 732.866 398.078 732.851 398.037 732.802L391.483 738.127C393.088 740.102 395.332 741.222 397.928 741.222V732.778ZM398.11 732.894L363.646 687.966L356.946 693.106L391.41 738.034L398.11 732.894ZM356.074 690.536V735.848H364.518V690.536H356.074ZM356.074 735.848C356.074 735.491 356.186 734.471 357.12 733.609C357.99 732.806 358.893 732.778 359.048 732.778V741.222C360.035 741.222 361.562 741.002 362.848 739.815C364.198 738.568 364.518 736.974 364.518 735.848H356.074ZM359.048 732.778H349.16V741.222H359.048V732.778ZM349.16 732.778C349.429 732.778 349.73 732.819 350.039 732.922C350.349 733.026 350.614 733.173 350.829 733.334L345.763 740.09C346.75 740.83 347.926 741.222 349.16 741.222V732.778ZM351.674 734.179C351.835 734.394 351.982 734.659 352.086 734.969C352.189 735.278 352.23 735.579 352.23 735.848H343.786C343.786 737.082 344.178 738.258 344.918 739.245L351.674 734.179ZM344.936 775.992L347.922 778.978L347.922 778.978L344.936 775.992ZM390.632 777.144L393.989 774.583L393.95 774.532L393.909 774.482L390.632 777.144ZM397.736 786.456L394.379 789.017L394.409 789.056L394.439 789.094L397.736 786.456ZM397.832 787.416L394.211 785.244L394.128 785.383L394.056 785.528L397.832 787.416ZM375.656 787.8V783.578H371.434V787.8H375.656ZM363.464 787.8H367.686V783.578H363.464V787.8ZM344.936 787.512L341.558 790.045L341.92 790.528L342.403 790.89L344.936 787.512ZM348.87 776.76C348.87 777.022 348.831 777.391 348.673 777.811C348.511 778.243 348.255 778.644 347.922 778.978L341.95 773.006C340.826 774.13 340.426 775.535 340.426 776.76H348.87ZM347.922 778.978C347.737 779.162 347.453 779.387 347.059 779.562C346.654 779.742 346.221 779.83 345.8 779.83V771.386C344.209 771.386 342.885 772.072 341.95 773.006L347.922 778.978ZM345.8 779.83H387.464V771.386H345.8V779.83ZM387.464 779.83C387.501 779.83 387.503 779.834 387.478 779.828C387.452 779.823 387.414 779.811 387.374 779.791C387.334 779.772 387.309 779.753 387.301 779.747C387.295 779.742 387.314 779.757 387.355 779.807L393.909 774.482C392.304 772.506 390.06 771.386 387.464 771.386V779.83ZM387.275 779.705L394.379 789.017L401.093 783.895L393.989 774.583L387.275 779.705ZM394.439 789.094C394.196 788.79 393.835 788.203 393.751 787.356C393.662 786.472 393.918 785.733 394.211 785.244L401.453 789.588C401.938 788.779 402.274 787.72 402.153 786.516C402.037 785.349 401.532 784.442 401.033 783.818L394.439 789.094ZM394.056 785.528C394.4 784.839 394.967 784.272 395.656 783.928C396.279 783.616 396.814 783.578 397.064 783.578V792.022C398.41 792.022 400.519 791.484 401.608 789.304L394.056 785.528ZM397.064 783.578H375.656V792.022H397.064V783.578ZM371.434 787.8V841.656H379.878V787.8H371.434ZM371.434 841.656C371.434 841.389 371.503 840.414 372.382 839.534C373.262 838.655 374.237 838.586 374.504 838.586V847.03C375.539 847.03 377.09 846.769 378.354 845.506C379.617 844.242 379.878 842.691 379.878 841.656H371.434ZM374.504 838.586H364.616V847.03H374.504V838.586ZM364.616 838.586C364.883 838.586 365.858 838.655 366.738 839.534C367.617 840.414 367.686 841.389 367.686 841.656H359.242C359.242 842.691 359.503 844.242 360.766 845.506C362.03 846.769 363.581 847.03 364.616 847.03V838.586ZM367.686 841.656V787.8H359.242V841.656H367.686ZM363.464 783.578H345.8V792.022H363.464V783.578ZM345.8 783.578C346.069 783.578 346.37 783.619 346.679 783.722C346.989 783.826 347.254 783.973 347.469 784.134L342.403 790.89C343.39 791.63 344.566 792.022 345.8 792.022V783.578ZM348.314 784.979C348.475 785.194 348.622 785.459 348.726 785.769C348.829 786.078 348.87 786.379 348.87 786.648H340.426C340.426 787.882 340.818 789.058 341.558 790.045L348.314 784.979ZM348.87 786.648V776.76H340.426V786.648H348.87Z" fill="#2B2B2B" fill-opacity="0.05" mask="url(#path-15-outside-1_140_101)"/>
<rect x="354" y="440" width="10" height="10" transform="rotate(-90 354 440)" fill="#2B2B2B"/>
<rect x="370" y="440" width="3" height="3" transform="rotate(-90 370 440)" fill="#2B2B2B"/>
<rect x="380" y="440" width="3" height="3" transform="rotate(-90 380 440)" fill="#2B2B2B"/>
<line x1="370" y1="757" x2="380" y2="757" stroke="#2B2B2B" stroke-width="2"/>
</g>
<defs>
<clipPath id="clip0_140_101">
<rect width="425" height="841" fill="white"/>
</clipPath>
</defs>
</svg>
