<svg width="655" height="213" viewBox="0 0 655 213" fill="none" xmlns="http://www.w3.org/2000/svg">
<path d="M53.8556 101.361C61.06 103.369 64.6621 108.684 64.6621 117.305V160H39.8602V117.482C39.8602 114.53 38.3839 113.054 35.4313 113.054H29.2308V160H4.42891V35.9904H41.4546C56.8082 35.9904 64.485 43.6672 64.485 59.0208V82.9369C64.485 92.6215 60.9418 98.7629 53.8556 101.361ZM39.6831 62.0324C39.6831 59.0798 38.2068 57.6035 35.2542 57.6035H29.2308V91.9719H35.2542C38.2068 91.9719 39.6831 90.4956 39.6831 87.543V62.0324ZM119.531 35.9904L135.829 160H111.204L109.256 141.93H93.666L91.8944 160H69.3955L85.6939 35.9904H119.531ZM101.461 66.107L95.969 120.317H107.13L101.461 66.107ZM180.785 97.6409L180.254 35.9904H201.69V160H177.597L162.007 92.6805L162.538 160H141.102V35.9904H166.436L180.785 97.6409ZM210.477 160V35.9904H245.377C263.093 35.9904 271.95 44.8483 271.95 62.5639V133.427C271.95 151.142 263.093 160 245.377 160H210.477ZM235.279 57.2492V138.741H240.239C244.846 138.741 247.149 136.438 247.149 131.832V64.1583C247.149 59.5522 244.846 57.2492 240.239 57.2492H235.279ZM342.021 138.033C342.021 153.386 334.345 161.063 318.991 161.063H303.047C287.693 161.063 280.017 153.386 280.017 138.033V57.9578C280.017 42.6043 287.693 34.9275 303.047 34.9275H318.991C334.345 34.9275 342.021 42.6043 342.021 57.9578V138.033ZM317.22 60.6152C317.22 57.6626 315.743 56.1863 312.791 56.1863H309.247C306.295 56.1863 304.819 57.6626 304.819 60.6152V135.375C304.819 138.328 306.295 139.804 309.247 139.804H312.791C315.743 139.804 317.22 138.328 317.22 135.375V60.6152ZM386.396 35.9904L393.66 110.928L401.1 35.9904H437.063V160H412.616V78.6852L403.226 160H379.842L370.452 77.7994V160H350.611V35.9904H386.396ZM470.915 35.9904V160H446.113V35.9904H470.915ZM504.643 58.135H479.309V35.9904H528.382V61.6781L502.163 137.855H528.382V160H478.424V134.312L504.643 58.135ZM535.552 35.9904H581.613V58.135H560.354V85.9486H580.727V108.093H560.354V137.855H581.967V160H535.552V35.9904ZM639.303 101.361C646.507 103.369 650.109 108.684 650.109 117.305V160H625.307V117.482C625.307 114.53 623.831 113.054 620.878 113.054H614.678V160H589.876V35.9904H626.902C642.255 35.9904 649.932 43.6672 649.932 59.0208V82.9369C649.932 92.6215 646.389 98.7629 639.303 101.361ZM625.13 62.0324C625.13 59.0798 623.654 57.6035 620.701 57.6035H614.678V91.9719H620.701C623.654 91.9719 625.13 90.4956 625.13 87.543V62.0324Z" fill="#2B2B2B"/>
<path d="M103.607 8.45125H114.206C115.319 8.45125 116.237 8.89634 116.96 9.78651L147.003 48.8429V9.4527C147.003 9.17452 147.087 8.95197 147.254 8.78507C147.476 8.56252 147.727 8.45125 148.005 8.45125H156.6C156.879 8.45125 157.101 8.56252 157.268 8.78507C157.491 8.95197 157.602 9.17452 157.602 9.4527V65.8675C157.602 66.5352 157.268 66.869 156.6 66.869H148.672C147.56 66.869 146.642 66.4239 145.918 65.5337L103.023 9.61961C102.801 9.39706 102.773 9.1467 102.94 8.86852C103.107 8.59034 103.329 8.45125 103.607 8.45125ZM169.651 66.0344V9.61961C169.651 9.34143 169.734 9.11888 169.901 8.95197C170.123 8.72943 170.374 8.61816 170.652 8.61816H178.58C179.693 8.61816 180.611 9.06325 181.334 9.95342L224.313 65.8675C224.48 66.1457 224.48 66.4239 224.313 66.7021C224.202 66.9246 223.979 67.0359 223.645 67.0359H213.047C211.934 67.0359 211.016 66.5908 210.293 65.7006L195.855 46.84L181.334 65.7006C180.611 66.5908 179.693 67.0359 178.58 67.0359H170.652C170.374 67.0359 170.123 66.9524 169.901 66.7855C169.734 66.563 169.651 66.3126 169.651 66.0344ZM180.333 26.6442V49.0098L188.928 37.827L180.333 26.6442ZM231.938 8.61816H240.534C241.257 8.61816 241.619 8.95197 241.619 9.61961V56.4372H264.986C265.32 56.4372 265.543 56.5763 265.654 56.8545C265.821 57.1327 265.821 57.3831 265.654 57.6056L259.395 65.7006C258.672 66.5908 257.781 67.0359 256.724 67.0359H231.938C231.66 67.0359 231.41 66.9524 231.187 66.7855C231.02 66.563 230.937 66.3126 230.937 66.0344V9.61961C230.937 9.34143 231.02 9.11888 231.187 8.95197C231.41 8.72943 231.66 8.61816 231.938 8.61816ZM269.92 37.5767C269.92 33.2927 270.699 29.3147 272.256 25.6428C273.87 21.9151 276.012 18.7161 278.682 16.0456C281.409 13.3194 284.608 11.2052 288.28 9.70306C291.952 8.14525 295.902 7.39417 300.13 7.4498C304.358 7.50544 308.309 8.33998 311.981 9.95342C315.652 11.5669 318.824 13.7645 321.494 16.5463C324.22 19.3281 326.362 22.5828 327.92 26.3104C329.478 29.9824 330.229 33.9047 330.173 38.0774C330.118 42.3057 329.283 46.2559 327.67 49.9278C326.056 53.5998 323.859 56.7989 321.077 59.525C318.351 62.2512 315.152 64.3932 311.48 65.951C307.808 67.4532 303.858 68.2042 299.629 68.2042C295.457 68.2042 291.534 67.4253 287.862 65.8675C284.246 64.2541 281.103 62.0843 278.432 59.3581C275.762 56.5763 273.675 53.3216 272.173 49.594C270.671 45.8664 269.92 41.8606 269.92 37.5767ZM280.602 37.9939C280.602 40.7201 281.13 43.3072 282.187 45.7551C283.245 48.2031 284.663 50.3451 286.444 52.1811C288.224 54.0171 290.283 55.4636 292.619 56.5207C294.956 57.5778 297.46 58.1063 300.13 58.1063C302.745 58.0507 305.221 57.4665 307.557 56.3538C309.894 55.2411 311.925 53.7667 313.65 51.9307C315.43 50.0391 316.821 47.8693 317.822 45.4213C318.824 42.9177 319.297 40.3028 319.241 37.5767C319.241 34.8505 318.712 32.2634 317.655 29.8155C316.598 27.3675 315.18 25.2533 313.399 23.473C311.619 21.637 309.533 20.1904 307.14 19.1334C304.803 18.0763 302.328 17.5477 299.713 17.5477C297.098 17.6034 294.622 18.1875 292.285 19.3003C289.949 20.3573 287.918 21.8317 286.193 23.7233C284.469 25.5593 283.105 27.7013 282.104 30.1493C281.103 32.5972 280.602 35.2121 280.602 37.9939ZM339.737 9.4527C339.737 9.17452 339.82 8.95197 339.987 8.78507C340.21 8.56252 340.46 8.45125 340.738 8.45125H384.802C385.08 8.45125 385.303 8.56252 385.47 8.78507C385.692 8.95197 385.803 9.17452 385.803 9.4527V21.7204C385.803 22.4993 385.553 23.1948 385.052 23.8068L371.867 41.0817L390.727 65.7006C390.894 65.9788 390.894 66.257 390.727 66.5352C390.616 66.7577 390.421 66.869 390.143 66.869H379.544C378.432 66.869 377.514 66.4239 376.79 65.5337L358.514 41.7494C358.124 41.3043 358.124 40.887 358.514 40.4975L374.954 19.0499H350.419V65.8675C350.419 66.5352 350.057 66.869 349.334 66.869H340.738C340.46 66.869 340.21 66.7855 339.987 66.6186C339.82 66.3961 339.737 66.1457 339.737 65.8675V9.4527ZM398.602 8.61816H406.53C407.643 8.61816 408.561 9.06325 409.284 9.95342L452.179 65.8675C452.402 66.0901 452.43 66.3404 452.263 66.6186C452.151 66.8968 451.929 67.0359 451.595 67.0359H440.996C439.884 67.0359 438.966 66.5908 438.242 65.7006L423.805 46.84L409.284 65.7006C408.561 66.5908 407.643 67.0359 406.53 67.0359H398.602C398.324 67.0359 398.073 66.9524 397.851 66.7855C397.684 66.563 397.6 66.3126 397.6 66.0344V9.61961C397.6 9.34143 397.684 9.11888 397.851 8.95197C398.073 8.72943 398.324 8.61816 398.602 8.61816ZM443.667 9.61961C443.667 8.95197 444.028 8.61816 444.752 8.61816H452.68C453.737 8.61816 454.627 9.06325 455.35 9.95342L485.394 49.0098V9.61961C485.394 8.95197 485.728 8.61816 486.395 8.61816H494.991C495.714 8.61816 496.076 8.95197 496.076 9.61961V66.0344C496.076 66.3126 495.965 66.563 495.742 66.7855C495.52 66.9524 495.269 67.0359 494.991 67.0359H487.063C485.95 67.0359 485.032 66.5908 484.309 65.7006L454.349 26.6442V49.5106C454.349 49.8444 454.182 50.0669 453.848 50.1782C453.514 50.2895 453.236 50.206 453.014 49.9278L444.418 38.745C443.917 38.133 443.667 37.4376 443.667 36.6587V9.61961ZM408.282 26.6442V49.0098L416.878 37.827L408.282 26.6442ZM505.272 9.4527C505.272 9.17452 505.356 8.95197 505.523 8.78507C505.745 8.56252 505.995 8.45125 506.274 8.45125H542.493C543.605 8.45125 544.523 8.89634 545.247 9.78651L551.422 17.8815C551.645 18.1597 551.673 18.4379 551.506 18.7161C551.394 18.9386 551.172 19.0499 550.838 19.0499H532.228V65.8675C532.228 66.5352 531.894 66.869 531.226 66.869H522.631C521.963 66.869 521.629 66.5352 521.629 65.8675V19.0499H506.274C505.995 19.0499 505.745 18.9664 505.523 18.7995C505.356 18.577 505.272 18.3266 505.272 18.0485V9.4527Z" fill="white"/>
</svg>
